<svg style="width:190px; height:118px;" viewBox="0 0 731 455" version="1.1" xmlns="http://www.w3.org/2000/svg" xmlns:xlink="http://www.w3.org/1999/xlink" width="190">
    <defs>
        <path d="M613.093793,99.8993415 C612.221116,99.7497439 556.947338,90.4341128 474.513471,83.5192043 L474.093793,85.4225945 C556.5705,92.3311372 611.899812,101.65393 612.770902,101.802732 L613.093793,99.8993415 Z" id="path-1"></path>
    </defs>
    <g id="Page-1" stroke="none" stroke-width="1" fill="none" fill-rule="evenodd">
        <g id="Artboard" transform="translate(-30.000000, -72.000000)" fill-rule="nonzero">
            <g id="hashmap-logo-edited" transform="translate(30.000000, 72.000000)">
                <g id="black-dividers" transform="translate(59.000000, 98.000000)">
                    <path d="M18.5788325,207.64221 L17.8790984,209.442951 C18.6862409,209.76204 69.1697638,229.415817 144.798696,244.332604 L145.879098,242.578811 C70.0495648,227.687488 19.3867647,207.961299 18.5788325,207.64221" id="path-29" stroke="#4A90E2" stroke-width="5" fill="#4A90E2"></path>
                    <path d="M309.441284,258.939851 C270.502499,258.939851 233.204608,255.810238 199.072093,251.109055 L200.07627,253.197055 C233.946654,257.812299 270.892132,260.872683 309.441284,260.872683 C346.005047,260.872683 380.942171,258.047835 413.058413,253.707119 L414.072093,251.623893 C381.687385,256.048957 346.397849,258.939851 309.441284,258.939851" id="path-30" stroke="#4A90E2" stroke-width="5" fill="#4A90E2"></path>
                    <path d="M594.221896,206.19557 C593.432544,206.528186 543.063995,227.380335 466.952342,242.765012 L468.197241,244.482201 C544.041064,229.072061 594.161419,208.312216 594.952342,207.981192 L594.221896,206.19557 Z" id="path-31" stroke="#4A90E2" stroke-width="5" fill="#4A90E2"></path>
                    <path d="M2.21784456,159.864091 L1.88989637,161.769869 C2.70458031,161.910713 51.2464974,170.109137 125.109845,176.831479 L124.050197,174.792814 C50.9775959,168.101506 3.02774093,160.00414 2.21784456,159.864091" id="path-32" stroke="#4A90E2" stroke-width="5" fill="#4A90E2"></path>
                    <path d="M309.395979,183.575305 C263.792031,183.575305 220.288228,181.820716 181.097223,179.268009 L181.26,181.215165 C220.413503,183.759915 263.861451,185.508137 309.395979,185.508137 C353.082508,185.508137 394.575534,183.804476 432.074135,181.288372 L432.074135,179.350765 C394.581917,181.870848 353.086497,183.575305 309.395979,183.575305" id="path-33" stroke="#4A90E2" stroke-width="5" fill="#4A90E2"></path>
                    <path d="M610.008691,158.471561 C609.21443,158.621954 560.766835,167.724329 486.571416,174.923314 L485.358135,176.977893 C560.433027,169.748671 609.555274,160.523753 610.358135,160.370973 L610.008691,158.471561 Z" id="path-34" stroke="#4A90E2" stroke-width="5" fill="#4A90E2"></path>
                    <path d="M306.123396,0 C267.907921,0 231.443743,2.98001524 198.03798,7.5212561 L197.03599,9.60766463 C230.701587,4.97968902 267.513799,1.93203659 306.123396,1.93203659 C344.453293,1.93203659 381.23531,4.85157622 415.03599,9.29732927 L414.299396,7.25548171 C380.692599,2.87259146 344.169621,0 306.123396,0" id="path-35" stroke="#4A90E2" stroke-width="5" fill="#4A90E2"></path>
                    <path d="M597.580124,51.428936 C596.783538,51.1106433 547.092919,31.5770213 472.580124,16.6777409 L473.005793,18.7291372 C546.895508,33.5695335 596.111877,52.9137713 596.903836,53.2304726 L597.580124,51.428936 Z" id="path-36" stroke="#4A90E2" stroke-width="5" fill="#4A90E2"></path>
                    <path d="M13.2188705,52.8898994 L13.9529637,54.6795 C14.7492953,54.3540457 64.5072539,34.3493506 140.212218,19.0728933 C139.929751,18.4665457 139.663244,17.8649726 139.426259,17.2641951 C63.7420415,32.571686 14.0167979,52.5652409 13.2188705,52.8898994" id="path-37" stroke="#4A90E2" stroke-width="5" fill="#4A90E2"></path>
                    <path d="M0.0414507772,100.50171 L0.382636089,102.401918 C1.21638848,102.241976 55.0276133,92.0335335 136.041451,84.6841555 L134.201048,82.9144482 C54.0248051,90.261439 0.871360995,100.341768 0.0414507772,100.50171" id="path-38" stroke="#4A90E2" stroke-width="5" fill="#4A90E2"></path>
                    <path d="M304.889585,76.1594817 C261.661004,76.1594817 220.597101,77.8297226 183.408704,80.3004695 L182.876446,82.2730884 C220.198699,79.7792652 261.451111,78.0915183 304.889585,78.0915183 C349.593757,78.0915183 392.287702,79.7752866 430.876446,82.2452378 L430.341019,80.2734146 C391.886924,77.8249482 349.380695,76.1594817 304.889585,76.1594817" id="path-39" stroke="#4A90E2" stroke-width="5" fill="#4A90E2"></path>
                    <g id="path-40">
                        <use fill="#4A90E2" xlink:href="#path-1"></use>
                        <use stroke="#4A90E2" stroke-width="3" xlink:href="#path-1"></use>
                        <use stroke="#4A90E2" stroke-width="5" xlink:href="#path-1"></use>
                    </g>
                </g>
                <path d="M723.368694,246.999021 C718.214104,249.083707 713.711611,249.04786 709.427545,252.108374 C708.99308,257.231268 707.867457,261.526501 708.035663,265.10719 C711.630164,268.014757 716.245858,269.901091 719.652223,272.999841 C720.388821,279.621924 716.494579,285.628241 715.468603,292.036041 C711.159028,293.265982 706.458833,293.480265 702.924121,293.428487 C702.52792,298.082984 695.853101,304.325093 695.954343,307.821342 C696.091459,312.550719 703.231834,313.830049 703.853637,319.42851 C701.844734,326.09122 698.89356,331.80439 694.560069,336.142639 C689.985829,335.412959 687.01632,334.044411 682.944305,333.819772 C680.051326,337.895146 677.783338,342.590269 674.11709,345.89215 C672.344951,352.663993 678.935268,354.279485 678.76228,358.89256 C678.553417,364.515715 667.131369,368.56719 662.96449,371.426962 C660.253268,369.494426 657.628142,367.476654 654.60283,365.857179 C651.10718,368.702611 645.664009,370.5061 642.986269,372.821001 C641.512277,377.028609 643.287605,382.65734 641.592792,387.213857 C636.175929,388.611082 632.111089,391.356144 626.260558,392.320819 C623.012034,390.459179 623.706381,384.657587 620.220297,383.034926 C615.301673,383.766199 608.072812,385.001716 602.099514,385.357793 C600.196637,389.028497 598.673218,393.0736 597.916691,397.890602 C592.383439,398.795533 586.052206,397.29236 581.190183,396.963367 C579.508922,389.978037 576.900537,383.915162 568.647294,383.500137 C566.296399,385.792733 563.943113,388.08533 562.604642,391.393584 C557.249959,389.625146 552.804862,386.947794 549.132237,383.500137 C581.098506,372.263385 607.891054,366.926207 631.123378,344.356317 C632.991977,344.209744 635.642613,339.843614 638.804243,337.534289 C651.666005,321.910696 661.523979,303.283148 668.541587,281.820523 C676.614667,254.905214 678.569361,225.180319 675.045809,196.393015 C670.8024,161.725256 657.709455,136.67079 640.661682,117.000501 C613.046441,93.6587112 580.538884,82.2116593 542.627218,70.106621 C541.320634,61.8172667 549.488578,57.8972289 556.565178,58.0350396 C559.177549,61.9248068 561.020638,66.5840835 563.999713,70.106621 C567.560733,68.5221961 573.127467,68.7460389 576.544993,68.249761 C578.314741,63.5179943 579.547187,58.2493233 581.654144,53.8569055 C586.584725,53.8919556 591.025038,53.2395454 595.595292,54.7849372 C597.612964,59.1128309 597.579482,65.4927501 599.776521,69.6430035 C604.609846,69.8055086 609.502162,73.4180611 616.037474,72.4294883 C617.409427,67.7630423 620.151739,64.4683306 623.008048,61.285142 C627.458725,62.3326628 633.267005,65.6154256 636.946008,67.7861435 C637.928936,74.9730121 638.32673,79.1041472 638.804243,84.9646873 C644.682676,87.7567483 649.203505,91.9077982 654.139666,95.6430262 C658.212478,93.5248835 660.654252,89.772927 664.825117,87.7495789 C670.373515,91.0267655 673.936927,96.2850808 677.833561,101.213606 C676.912016,105.865714 674.165718,108.692028 673.651535,113.749602 C678.157217,118.378608 681.911155,123.758005 684.804135,129.999317 C687.957794,130.361767 691.580196,128.47623 695.954343,127.67884 C699.274614,133.491584 703.271693,138.627224 705.246317,145.785415 C702.181943,148.912842 699.021906,151.947068 696.419899,155.534926 C698.779562,160.860155 700.044693,169.778022 703.853637,175.03554 C707.117307,174.857103 711.850984,175.469684 715.934159,175.499954 C717.832253,181.650455 720.455785,187.076851 721.043309,194.535358 C717.228785,197.994965 711.61422,199.659846 708.963584,204.284869 C711.106414,208.481325 709.508061,218.379798 711.288172,224.249101 C715.219882,223.586335 718.957876,226.672339 722.903139,227.499203 C723.46595,233.57801 725.328969,241.37029 723.368694,246.999021 M511.960358,383.500137 C512.421927,382.255061 513.25897,381.391553 513.354632,379.786417 C517.256847,379.008941 524.365334,378.784302 528.688461,378.857588 C531.667536,369.142331 535.77383,360.558237 538.445192,350.534698 C535.790571,343.691161 524.041677,340.813865 528.221311,331.498498 C534.086989,331.68968 536.865971,331.600462 541.699296,331.962115 C546.417029,321.357063 547.160802,306.780194 550.060159,294.356519 C545.381488,291.294412 541.246496,287.689029 536.58616,284.606211 C536.680228,283.154818 536.272867,281.198383 537.051715,280.428874 C539.723875,279.651398 548.105464,278.321087 551.453636,275.322708 C552.770583,265.029124 553.602046,254.251211 553.31506,242.35727 C547.770647,238.375894 537.741279,240.632644 539.837872,229.821274 C543.762408,229.070086 548.965626,227.098517 552.384747,225.64314 C552.021231,218.22048 552.762612,205.481353 551.919191,195.927804 C548.71531,191.638943 542.207102,192.747802 536.58616,191.748873 C532.033444,181.77552 542.989937,181.767554 547.737963,178.284846 C545.155088,168.343356 546.30064,153.513968 542.16246,143.927759 C537.699028,144.335615 533.88291,142.777477 529.152422,142.999727 C527.232006,137.684854 526.584693,136.072548 525.940569,131.881668 C529.48963,127.368965 532.985281,122.711281 536.122199,119.786189 C535.297114,114.147899 533.44685,109.18034 531.938579,104.000091 C530.325079,98.4486293 528.522647,94.480796 526.829428,89.6072355 C523.242899,90.2261889 519.193206,90.2046808 515.67922,90.5352672 C513.655968,87.1409813 511.627135,83.7506784 510.567678,79.3925141 C512.633181,76.5040653 514.001148,72.9185969 517.0719,71.0354493 C523.698091,73.2173195 531.221911,75.3051917 537.982029,77.07124 C556.475893,81.9033776 571.539477,87.6523945 588.624718,94.2489872 C611.371558,103.034619 626.965268,112.596931 640.661682,128.606871 C652.373107,142.293148 660.952398,162.936875 665.756227,182.464573 C678.834823,235.675441 663.074501,287.590251 640.661682,322.678612 C625.502436,345.316213 601.614826,358.8129 575.615477,369.570899 C555.384549,374.280361 533.526569,382.130792 511.960358,383.500137 M507.314371,374.21265 C505.018482,379.654979 501.897508,384.276019 501.274908,391.393584 C511.031639,401.19089 499.795335,413.205117 493.374817,420.178498 C489.938955,419.906063 485.52176,416.992123 481.759053,415.53595 C479.186541,419.307025 474.659335,421.129631 472.005511,424.821047 C473.002787,428.001845 472.08762,433.094469 472.933432,436.427417 C467.593896,442.129435 460.23589,445.156491 452.489656,446.642139 C450.416979,443.423103 448.72376,440.157069 448.773186,435.962206 C444.208512,436.863951 437.909963,436.203574 432.509841,435.500182 C430.465862,439.491913 427.837547,442.901334 425.076103,446.176928 C420.425333,443.953635 414.640171,441.081914 410.208627,437.357839 C411.079949,432.501803 411.503253,427.198879 412.995581,422.96339 C409.193812,420.726555 407.323619,416.558776 403.702811,414.143504 C401.292924,415.912739 399.209086,418.009374 395.801923,418.784459 C394.349454,414.976741 391.046722,413.015527 390.229609,408.571331 C408.623826,406.57905 424.834556,405.74183 444.590363,401.140705 C461.178959,387.049758 469.570114,364.997654 478.507341,344.034493 C483.957686,331.25713 488.883484,317.513498 491.054215,303.178794 C493.35409,287.971023 493.509541,272.994265 494.77228,256.284118 C497.16144,224.598806 495.003463,186.442763 490.124699,157.392582 C483.22348,116.309854 469.8571,75.9137893 446.913356,51.0720138 C431.833829,46.0247959 413.947418,43.5569486 398.592066,42.2497383 C398.502781,34.5036608 404.443394,31.0360883 409.277516,26.928851 C411.298377,28.7506609 411.716898,29.6755062 413.331993,31.9322563 C416.236133,29.9973301 418.016244,27.391672 422.289149,26.4636403 C421.680898,22.5866186 422.212619,15.5646449 424.14579,11.6063706 C429.346616,9.87935544 432.988948,8.10454461 439.479618,7.89344727 C440.179545,11.6501833 441.732459,15.5439335 441.802611,18.5709896 C446.650286,19.062488 451.983445,20.754453 457.134049,21.3574745 C459.267312,17.2972363 462.487934,14.3243485 465.034936,10.6791355 C468.970632,14.2765528 476.469739,15.6068644 480.121638,19.6806447 C479.798778,25.48383 479.798778,32.5774972 479.90321,37.60719 C482.834454,41.1751333 485.491467,45.0210878 488.728033,48.2863255 C492.474797,48.1596671 494.050032,45.8630874 498.022398,45.9642548 C503.512602,51.1548596 507.075216,58.2756109 510.567678,65.4632762 C507.873197,70.5089008 504.938764,75.3147508 503.134737,81.2501707 C505.385984,87.2015225 508.310851,92.4805491 509.638959,99.3567462 C513.359415,100.492689 516.546556,96.9088137 522.184239,97.4998862 C524.650725,105.120102 527.653716,108.85055 528.522647,116.083621 C524.650725,122.208631 521.746585,125.433242 518.841648,130.270159 C518.440664,135.087958 521.600701,146.155035 524.041677,150.427963 C526.798338,149.796265 532.911143,151.230133 534.728722,150.427963 C536.157275,157.965333 538.439612,168.04782 537.515676,175.03554 C529.444988,176.333192 526.532079,186.973294 529.152422,197.785461 C533.469969,198.803507 537.036569,199.631965 542.627218,199.178703 C545.536939,205.143597 545.274665,216.880609 544.48625,221.463413 C540.748256,223.055007 536.702549,222.617677 533.798408,225.64314 C532.113162,229.637261 532.202447,235.139334 532.869689,240.962434 C537.704609,244.288213 541.118149,244.195808 545.879727,246.999021 C545.965026,254.586577 545.707536,261.558365 544.48625,270.212559 C538.284161,272.383277 536.010593,272.825387 530.082735,274.857497 C529.192281,279.230797 528.379154,283.677383 528.688461,289.247963 C533.343217,291.717404 537.12665,295.054335 541.699296,297.605824 C542.227032,307.069358 539.168238,316.243728 537.051715,324.534675 C532.172951,325.680974 526.559183,324.728248 522.6482,325.928714 C521.500255,331.125692 518.508425,334.481741 518.930932,341.248805 C522.67371,344.47501 525.337101,348.776616 529.152422,351.927941 C527.235992,359.76244 525.07961,367.358758 521.717887,373.749829 C515.815538,374.307445 512.181178,372.858441 507.314371,374.21265 M335.196829,418.784459 C331.792854,418.009374 329.707422,415.912739 327.298333,414.143504 C323.67593,416.558776 321.807331,420.726555 318.005562,422.96339 C319.497093,427.198879 319.9196,432.501803 320.793313,437.357839 C316.362566,441.081914 310.575013,443.953635 305.925837,446.176928 C303.164393,442.901334 300.535281,439.491913 298.491302,435.500182 C293.089585,436.203574 286.791834,436.863951 282.228754,435.962206 C282.276585,440.157069 280.58257,443.423103 278.511487,446.642139 C270.765253,445.156491 263.405653,442.129435 258.067711,436.427417 C258.913523,433.094469 257.997559,428.001845 258.99643,424.821047 C256.341011,421.129631 251.813804,419.307025 249.240495,415.53595 C245.48018,416.992123 241.063782,419.906063 237.623935,420.178498 C231.205808,413.205117 219.970301,401.19089 229.726236,391.393584 C229.102041,384.276019 225.983458,379.654979 223.685975,374.21265 C218.819965,372.858441 215.185605,374.307445 209.283257,373.749829 C205.920736,367.358758 203.763557,359.76244 201.847924,351.927941 C205.664043,348.776616 208.329825,344.47501 212.070211,341.248805 C212.493515,334.481741 209.500091,331.125692 208.35374,325.928714 C204.441163,324.728248 198.828989,325.680974 193.950225,324.534675 C191.830514,316.243728 188.774908,307.069358 189.302644,297.605824 C193.874493,295.054335 197.659521,291.717404 202.312682,289.247963 C202.623584,283.677383 201.808065,279.230797 200.918408,274.857497 C194.988955,272.825387 192.717779,272.383277 186.51569,270.212559 C185.293607,261.558365 185.037711,254.586577 185.122213,246.999021 C189.882197,244.195808 193.294143,244.288213 198.131454,240.962434 C198.798696,235.139334 198.887184,229.637261 197.201937,225.64314 C194.299392,222.617677 190.252887,223.055007 186.51569,221.463413 C185.725681,216.880609 185.465799,205.143597 188.373925,199.178703 C193.964574,199.631965 197.531972,198.803507 201.847924,197.785461 C204.46747,186.973294 201.556952,176.333192 193.485467,175.03554 C192.560734,168.04782 194.843868,157.965333 196.272421,150.42876 C198.09,151.230133 204.202008,149.796265 206.958669,150.42876 C209.400443,146.155035 212.560479,135.087958 212.159495,130.270159 C209.255355,125.433242 206.351215,122.208631 202.479294,116.083621 C203.346629,108.85055 206.351215,105.120102 208.817701,97.4998862 C214.455384,96.9088137 217.642525,100.492689 221.362981,99.3567462 C222.690292,92.4805491 225.615159,87.2015225 227.867203,81.2501707 C226.062379,75.3147508 223.128743,70.5089008 220.433465,65.4632762 C223.925927,58.2756109 227.487744,51.1548596 232.978745,45.9642548 C236.951111,45.8630874 238.524752,48.1596671 242.272313,48.2863255 C245.509676,45.0210878 248.165095,41.1751333 251.099528,37.60719 C251.202365,32.5774972 251.202365,25.48383 250.879505,19.6806447 C254.531404,15.6068644 262.030511,14.2765528 265.966207,10.6791355 C268.512412,14.3243485 271.733831,17.2972363 273.867095,21.3574745 C279.019293,20.754453 284.351655,19.062488 289.197734,18.5709896 C289.269481,15.5439335 290.821598,11.6501833 291.522322,7.89344727 C298.012195,8.10454461 301.654527,9.87935544 306.855354,11.6063706 C308.789321,15.5646449 309.320246,22.5866186 308.713589,26.4636403 C312.985696,27.391672 314.765807,29.9973301 317.669948,31.9322563 C319.284245,29.6755062 319.703563,28.7506609 321.72283,26.928851 C326.556952,31.0360883 332.498362,34.5036608 332.409077,42.2497383 C323.879212,42.9762317 314.575281,44.083497 305.400493,45.7682928 C304.013394,45.987356 302.632671,46.2032329 301.216076,46.4414145 C299.038967,46.8062544 297.349735,47.2419912 295.436494,47.8537752 C291.541455,48.791366 287.729322,49.8524288 284.087787,51.0720138 C261.14484,75.9137893 247.777663,116.309854 240.876444,157.392582 C235.99768,186.442763 233.840501,224.598806 236.231255,256.284118 C237.490805,272.994265 237.647053,287.971023 239.946928,303.178794 C242.117659,317.513498 247.044254,331.25713 252.493802,344.034493 C261.431826,364.997654 269.821387,387.049758 286.411577,401.140705 C306.166587,405.74183 322.377317,406.57905 340.773129,408.571331 C339.954421,413.015527 336.652486,414.976741 335.196829,418.784459 M155.384869,369.570899 C129.38552,358.8129 105.498707,345.316213 90.3386644,322.678612 C67.9274388,287.590251 52.1679141,235.675441 65.2473072,182.464573 C70.0471503,162.936875 78.6272385,142.293148 90.3386644,128.606871 C104.035078,112.596931 119.630382,103.034619 142.376425,94.2489872 C159.461666,87.6523945 174.522858,81.9033776 193.019912,77.07124 C199.777638,75.3051917 207.303052,73.2173195 213.928446,71.0354493 C216.999995,72.9185969 218.367962,76.5040653 220.433465,79.3925141 C219.374008,83.7506784 217.345973,87.1409813 215.321923,90.5352672 C211.80714,90.2046808 207.759041,90.2261889 204.171715,89.6072355 C202.479294,94.480796 200.676064,98.4486293 199.060173,104.000091 C197.552698,109.18034 195.703232,114.147899 194.879741,119.786189 C198.015862,122.711281 201.511513,127.368965 205.060574,131.881668 C204.415653,136.072548 203.769934,137.684854 201.847924,142.999727 C197.118233,142.777477 193.302912,144.335615 188.838683,143.927759 C184.7013,153.513968 185.846056,168.343356 183.26318,178.284846 C188.011206,181.767554 198.966902,181.77552 194.41578,191.748873 C188.794041,192.747802 182.28663,191.638943 179.081952,195.927804 C178.239329,205.481353 178.979912,218.22048 178.616397,225.64314 C182.03472,227.098517 187.237141,229.070086 191.160879,229.821274 C193.259864,240.632644 183.229699,238.375894 177.687677,242.35727 C177.400691,254.251211 178.23056,265.029124 179.545116,275.322708 C182.894881,278.321087 191.278065,279.651398 193.950225,280.428874 C194.727479,281.198383 194.320118,283.154818 194.41578,284.606211 C189.75385,287.689029 185.618858,291.294412 180.93939,294.356519 C183.840341,306.780194 184.584911,321.357063 189.302644,331.962115 C194.133577,331.600462 196.91256,331.68968 202.77744,331.498498 C206.958669,340.813865 195.210573,343.691161 192.555154,350.534698 C195.226516,360.558237 199.333607,369.142331 202.312682,378.857588 C206.635809,378.784302 213.743499,379.008941 217.645714,379.786417 C217.742173,381.391553 218.58081,382.255061 219.039988,383.500137 C197.474574,382.130792 175.615797,374.280361 155.384869,369.570899 M168.395704,391.393584 C167.057233,388.08533 164.706338,385.792733 162.354646,383.500137 C154.099012,383.915162 151.492221,389.978037 149.809366,396.963367 C144.949734,397.29236 138.616907,398.795533 133.08206,397.890602 C132.328722,393.0736 130.802912,389.028497 128.901629,385.357793 C122.928331,385.001716 115.69947,383.766199 110.780049,383.034926 C107.294762,384.657587 107.989109,390.459179 104.740585,392.320819 C98.8908512,391.356144 94.8236199,388.611082 89.408351,387.213857 C87.7135384,382.65734 89.4888665,377.028609 88.0140767,372.821001 C85.3371338,370.5061 79.8931662,368.702611 76.3983129,365.857179 C73.3730007,367.476654 70.7478748,369.494426 68.036653,371.426962 C63.8697737,368.56719 52.4477256,364.515715 52.2372691,358.89256 C52.0658746,354.279485 58.6545979,352.663993 56.8840529,345.89215 C53.2193994,342.590269 50.948223,337.895146 48.0560405,333.819772 C43.9848233,334.044411 41.015314,335.412959 36.4402767,336.142639 C32.1075833,331.80439 29.1548148,326.09122 27.1483035,319.42851 C27.7685124,313.830049 34.9104812,312.550719 35.0467996,307.821342 C35.148042,304.325093 28.4748171,298.082984 28.0770225,293.428487 C24.5407155,293.480265 19.842912,293.265982 15.5325397,292.036041 C14.5081586,285.628241 10.6123218,279.621924 11.3513111,272.999841 C14.7544884,269.901091 19.3709792,268.014757 22.9670749,265.10719 C23.1328891,261.526501 22.0080629,257.231268 21.5728006,252.108374 C17.2895325,249.04786 12.7862418,249.083707 7.63324631,246.999021 C5.67217439,241.37029 7.53519271,233.57801 8.09800441,227.499203 C12.0432666,226.672339 15.7804638,223.586335 19.7137682,224.249101 C21.4938794,218.379798 19.8939317,208.481325 22.0367615,204.284869 C19.3869229,199.659846 13.7747496,197.994965 9.95703681,194.535358 C10.5453584,187.076851 13.16889,181.650455 15.0669844,175.499954 C19.1509565,175.469684 23.883039,174.857103 27.1483035,175.03554 C30.95645,169.778022 32.2223777,160.860155 34.5820415,155.534926 C31.9792367,151.947068 28.8192005,148.912842 25.753232,145.785415 C27.7286532,138.627224 31.7265295,133.491584 35.0467996,127.67884 C39.4193523,128.47623 43.0441466,130.361767 46.1978053,129.999317 C49.0883934,123.758005 52.8439259,118.378608 57.348811,113.749602 C56.8354247,108.692028 54.0867353,105.865714 53.1675825,101.213606 C57.0626221,96.2850808 60.6276276,91.0267655 66.1760262,87.7495789 C70.3468913,89.772927 72.7870707,93.5248835 76.8622738,95.6430262 C81.7976381,91.9077982 86.3176697,87.7567483 92.1961024,84.9646873 C92.6736154,79.1041472 93.0706129,74.9730121 94.0551348,67.7861435 C97.7349348,65.6154256 103.544012,62.3326628 107.993095,61.285142 C110.848607,64.4683306 113.590919,67.7630423 114.962872,72.4294883 C121.498981,73.4180611 126.391298,69.8055086 131.224622,69.6430035 C133.421661,65.4927501 133.388179,59.1128309 135.406648,54.7849372 C139.975308,53.2395454 144.414824,53.8919556 149.346202,53.8569055 C151.454753,58.2493233 152.686402,63.5179943 154.45615,68.249761 C157.872879,68.7460389 163.438019,68.5221961 167.000633,70.106621 C169.980505,66.5840835 171.822,61.9248068 174.435965,58.0350396 C181.512565,57.8972289 189.679712,61.8172667 188.373925,70.106621 C150.46226,82.2116593 117.956297,93.6587112 90.3386644,117.000501 C73.2908908,136.67079 60.1971484,161.725256 55.9553339,196.393015 C52.4317819,225.180319 54.3864764,254.905214 62.4595558,281.820523 C69.4779611,303.283148 79.3327461,321.910696 92.1961024,337.534289 C95.3593273,339.843614 98.009166,344.209744 99.8769674,344.356317 C123.109292,366.926207 149.903434,372.263385 181.869703,383.500137 C178.196281,386.947794 173.750387,389.625146 168.395704,391.393584 M436.785934,396.399379 C436.384154,396.420887 435.992737,396.425666 435.556677,396.498953 C416.775826,401.379683 392.018489,403.418963 367.953107,403.593417 C367.135994,403.597228 366.318881,403.597228 365.50097,403.597228 C364.682262,403.597228 363.864352,403.597228 363.047239,403.593417 C338.983451,403.418963 314.226911,401.379683 295.444466,396.498953 C295.008406,396.425666 294.616989,396.420887 294.215209,396.399379 C287.648806,393.831957 282.054171,389.994765 278.047526,383.962958 C238.440251,328.806011 236.043119,240.468546 246.452744,157.855403 C250.293575,138.481447 256.466169,121.434341 261.321017,103.071263 C265.362739,91.421876 271.020352,77.7483447 278.047526,65.9284869 C284.532615,55.0183392 292.303562,54.6758039 306.389798,52.0000455 C333.891839,46.7743906 366.715878,46.1562339 397.923229,48.0537202 C407.223174,49.0661908 416.184316,50.3980955 424.611345,52.0000455 C438.695987,54.6758039 446.467731,55.0183392 452.953617,65.9284869 C459.979994,77.7483447 465.63681,91.421876 469.680126,103.071263 C474.534974,121.434341 480.706771,138.481447 484.547602,157.855403 C494.958024,240.468546 492.560892,328.806011 452.953617,383.962958 C448.94458,389.994765 443.351539,393.831957 436.785934,396.399379 M728.941805,221.928623 C723.701917,221.042811 720.886264,219.507775 715.934159,217.748896 L715.934159,205.678111 C720.421506,203.506597 724.318937,200.748789 728.941805,198.713492 C727.305187,187.19634 724.228058,177.117836 721.043309,167.142093 C715.844874,165.663615 713.466078,166.923826 708.035663,166.214061 C705.675999,164.080783 705.657664,159.612689 704.783153,155.99934 C707.20978,151.769427 711.991288,149.893449 715.00544,146.249033 C710.251833,137.224422 707.484809,126.2147 701.065885,118.857361 C696.529113,119.896119 692.527251,121.468595 688.055847,122.571081 C686.309218,118.643077 680.959318,116.438106 680.622109,112.357156 C680.213951,107.413495 686.895945,103.341308 687.124737,97.4998862 C680.060892,90.9399368 674.143397,83.2352823 665.756227,78.0000683 C660.997041,80.5212874 657.28057,84.0804682 653.208556,87.2851648 C643.49567,85.2578338 643.837661,71.3747982 643.914191,62.2139703 C639.892399,59.5868042 635.664934,57.5690323 629.977028,55.7145621 C626.779524,54.6718209 622.5688,52.493137 620.683461,52.9280772 C616.255902,53.9532933 616.410556,62.5326078 613.248925,65.9292835 C610.266661,65.8153706 608.65077,64.3329097 605.352024,64.5352445 C604.073341,59.9325259 602.602537,55.5209898 602.565069,49.6787714 C596.109476,45.2066942 584.652351,48.5093718 577.475307,47.3574973 C574.465938,50.6976148 573.558743,56.1351636 572.364562,61.285142 C563.599527,64.9207958 563.902457,53.5709284 559.817687,49.6787714 C547.937259,49.7496682 535.361686,53.0762436 536.58616,67.7861435 C530.67584,66.2614631 524.294384,65.2131457 518.468566,63.6072128 C513.81381,54.7921065 506.855193,48.2807494 503.134737,38.5360183 C499.773811,36.8416634 495.149348,38.7001166 491.982137,39.9276675 C483.622869,36.7516483 487.662199,24.438699 489.193588,16.2505121 C481.096594,11.0320266 472.154584,6.65952358 464.104623,1.39324243 C458.626376,5.71078045 456.732268,16.3030873 447.378114,11.6063706 C445.97826,7.84007549 445.49118,3.61175597 445.055918,0 C432.206911,0.586292985 427.318581,5.08386119 416.712849,6.50020484 C417.421545,11.6716913 416.062347,16.9539044 415.781738,21.3574745 C412.026206,16.5779121 408.703544,18.5709896 402.772497,23.6787486 C398.052372,27.744563 390.857789,30.7716192 392.551008,41.7853241 C375.638755,41.032543 360.874116,40.8023275 345.965186,41.5104993 C343.490728,41.5853791 340.99634,41.6722078 338.448541,41.7853241 C340.143354,30.7716192 332.948771,27.744563 328.228646,23.6787486 C322.297599,18.5709896 318.975735,16.5779121 315.217811,21.3574745 C314.937999,16.9539044 313.579598,11.6716913 314.288294,6.50020484 C303.680968,5.08386119 298.793435,0.586292985 285.946022,0 C285.509963,3.61175597 285.022086,7.84007549 283.623826,11.6063706 C274.266484,16.3030873 272.375564,5.71078045 266.895723,1.39324243 C258.846559,6.65952358 249.90455,11.0320266 241.806757,16.2505121 C243.339742,24.438699 247.378274,36.7516483 239.019803,39.9276675 C235.850998,38.7001166 231.22813,36.8416634 227.867203,38.5360183 C224.14595,48.2807494 217.18813,54.7921065 212.533375,63.6072128 C206.708353,65.2131457 200.322912,66.2614631 194.414983,67.7861435 C195.640255,53.0762436 183.064682,49.7496682 171.183456,49.6787714 C167.098686,53.5709284 167.400819,64.9207958 158.638176,61.285142 C157.4424,56.1351636 156.533611,50.6976148 153.527431,47.3574973 C146.347994,48.5093718 134.892465,45.2066942 128.436074,49.6787714 C128.399403,55.5209898 126.927802,59.9325259 125.649119,64.5352445 C122.348779,64.3329097 120.734482,65.8153706 117.750623,65.9292835 C114.588993,62.5326078 114.743646,53.9532933 110.316088,52.9280772 C108.432343,52.493137 104.223213,54.6718209 101.024115,55.7145621 C95.3338175,57.5690323 91.1103382,59.5868042 87.0845605,62.2139703 C87.1634816,71.3747982 87.5062706,85.2578338 77.79179,87.2851648 C73.7197756,84.0804682 70.0033052,80.5212874 65.2473072,78.0000683 C56.8577458,83.2352823 50.9402512,90.9399368 43.874812,97.4998862 C44.1059953,103.341308 50.7879891,107.413495 50.3790339,112.357156 C50.0418251,116.438106 44.6903309,118.643077 42.9437014,122.571081 C38.4738924,121.468595 34.4704358,119.896119 29.9352577,118.857361 C23.5163345,126.2147 20.7485127,137.224422 15.9965006,146.249033 C19.009855,149.893449 23.7913629,151.769427 26.2187872,155.99934 C25.3426824,159.612689 25.3243471,164.080783 22.9670749,166.214061 C17.5350651,166.923826 15.1586605,165.663615 9.95703681,167.142093 C6.77467945,177.117836 3.69595598,187.19634 2.05774346,198.713492 C6.68061178,200.748789 10.5796373,203.506597 15.0669844,205.678111 L15.0669844,217.748896 C10.114082,219.507775 7.3008207,221.042811 2.05774346,221.928623 C-1.50805926,229.108323 0.512801435,245.959467 1.12822726,254.427258 C4.98101611,254.160399 11.476469,255.20553 15.0669844,256.284118 C16.2882698,257.543533 15.9893259,260.316475 15.9965006,262.785119 C11.199049,265.000446 6.48211303,266.305267 3.91597868,269.749738 C6.777071,280.046509 6.9094035,293.068427 13.6735073,299.463481 C19.0465254,298.323555 27.7661208,299.236452 27.1483035,307.821342 C26.8429821,312.07117 19.2099481,313.994147 19.2482129,319.42851 C19.2697369,322.383076 23.9101432,329.669519 25.289271,332.428919 C27.0279287,335.903661 29.7295843,342.974227 33.1885644,343.570079 C37.7030157,344.347555 39.3396339,340.289706 45.7330472,341.712423 C47.1313074,344.187439 49.451112,345.735221 50.3790339,348.677838 C47.0484003,351.540796 45.1933538,355.879046 42.9437014,359.822185 C46.1252616,363.022102 47.8543531,367.090306 51.3093472,370.498134 C53.3190474,372.484838 62.6397193,380.974138 65.2473072,380.713652 C66.9349451,380.544774 70.6856944,375.696704 73.6113586,374.677064 C82.9001432,371.446877 82.2631934,382.705136 81.0450967,390.92917 C89.7886076,394.115545 99.3986572,398.885548 108.921814,399.748259 C111.397866,397.425392 112.103374,393.33329 114.034153,390.463162 C117.221293,390.753122 118.57252,390.465552 121.931852,390.92917 C125.055218,394.636517 125.944875,400.834813 127.507355,404.856814 C135.428969,405.390532 147.74466,402.713977 156.314385,401.605915 C158.152691,398.954852 157.169763,393.484642 160.03245,391.856405 C161.644355,394.577569 163.473095,397.083653 165.607156,399.283845 C173.972801,396.759439 180.514491,394.767955 187.444409,391.393584 C188.588368,388.888297 187.432451,386.649868 188.838683,384.892582 C198.611358,387.209874 210.310029,387.417785 221.827739,390.92917 C219.895366,395.265826 214.938478,397.890602 215.321923,402.53554 C215.685439,406.902467 221.980001,412.426048 225.079452,416.463982 C229.267058,421.916666 232.347376,427.010086 236.695215,428.999181 C239.953305,426.994154 243.188277,424.964433 246.918299,423.427008 C248.695222,424.746167 251.168883,425.370696 252.028247,427.607531 C251.223091,432.063677 250.940091,437.042388 251.099528,442.462411 C260.648992,446.696307 270.122723,450.770884 279.906558,453.605164 C283.043476,448.898092 287.228691,438.660269 294.310074,441.99959 C298.92497,444.175884 297.381622,453.91026 304.067602,455 C311.030205,449.577586 319.76973,445.928391 327.298333,441.071559 C326.493974,434.259089 323.991614,427.90944 326.832777,423.427008 C331.441296,422.103865 332.183474,427.742952 336.590306,428.071149 C340.772332,422.050494 345.818504,414.924963 348.197301,408.590449 C350.091409,408.679668 351.979937,408.755344 353.866074,408.815885 C357.280412,408.931391 360.753741,408.98556 364.258958,408.995915 C364.672696,408.995915 365.088029,409.003881 365.50097,409.005475 C365.912317,409.003881 366.329244,408.995915 366.742185,408.995915 C370.247402,408.98556 373.719934,408.931391 377.137461,408.815885 C379.021206,408.755344 380.910531,408.679668 382.803045,408.590449 C385.181841,414.924963 390.228812,422.050494 394.411634,428.071149 C398.815277,427.742952 399.558252,422.103865 404.165974,423.427008 C407.010326,427.90944 404.507169,434.259089 403.702811,441.071559 C411.231413,445.928391 419.970938,449.577586 426.931947,455 C433.619521,453.91026 432.076173,444.175884 436.691867,441.99959 C443.772452,438.660269 447.957667,448.898092 451.094585,453.605164 C460.880812,450.770884 470.351354,446.696307 479.90321,442.462411 C480.062646,437.042388 479.778849,432.063677 478.972896,427.607531 C479.833855,425.370696 482.30353,424.746167 484.083641,423.427008 C487.814461,424.964433 491.047041,426.994154 494.30513,428.999181 C498.653768,427.010086 501.733288,421.916666 505.921691,416.463982 C509.021142,412.426048 515.315704,406.902467 515.67922,402.53554 C516.063462,397.890602 511.105777,395.265826 509.173404,390.92917 C520.68952,387.417785 532.388988,387.209874 542.16246,384.892582 C543.568692,386.649868 542.413573,388.888297 543.55514,391.393584 C550.486652,394.767955 557.026747,396.759439 565.393987,399.283845 C567.527251,397.083653 569.35599,394.577569 570.967896,391.856405 C573.83138,393.484642 572.849249,398.954852 574.685164,401.605915 C583.255686,402.713977 595.572971,405.390532 603.493788,404.856814 C605.055471,400.834813 605.945925,394.636517 609.067697,390.92917 C612.428623,390.465552 613.779053,390.753122 616.967787,390.463162 C618.896175,393.33329 619.600885,397.425392 622.079329,399.748259 C631.603283,398.885548 641.211738,394.115545 649.957641,390.92917 C648.73795,382.705136 648.101,371.446877 657.390582,374.677064 C660.313854,375.696704 664.065401,380.544774 665.756227,380.713652 C668.359829,380.974138 677.681299,372.484838 679.691796,370.498134 C683.145196,367.090306 684.875881,363.022102 688.055847,359.822185 C685.805398,355.879046 683.95354,351.540796 680.622109,348.677838 C681.547639,345.735221 683.87143,344.187439 685.266501,341.712423 C691.659915,340.289706 693.29733,344.347555 697.812579,343.570079 C701.272356,342.974227 703.972417,335.903661 705.711075,332.428919 C707.090203,329.669519 711.729812,322.383076 711.752133,319.42851 C711.789601,313.994147 704.158958,312.07117 703.853637,307.821342 C703.236617,299.236452 711.953023,298.323555 717.326839,299.463481 C724.090942,293.068427 724.223275,280.046509 727.085164,269.749738 C724.516638,266.305267 719.802891,265.000446 715.00544,262.785119 C715.012614,260.316475 714.712873,257.543533 715.934159,256.284118 C719.52308,255.20553 726.018533,254.160399 729.870524,254.427258 C730.488342,245.959467 732.507608,229.108323 728.941805,221.928623" id="bold-outline" fill="#FF9500"></path>
            </g>
        </g>
    </g>
</svg> 