<?xml version="1.0" encoding="UTF-8"?>
<svg width="480px" height="310px" viewBox="0 0 960 620" xmlns="http://www.w3.org/2000/svg" xmlns:xlink="http://www.w3.org/1999/xlink" version="1.1">
 <!-- Generated by Pixelmator Pro 1.1.3 -->
 <path id="path" d="M932.401 338.725 L932.401 308.775 914.596 300.677 913.782 282.869 929.972 269.917 921.069 239.156 904.881 239.156 900.829 219.728 911.356 206.777 899.212 179.255 882.213 184.112 870.881 165.492 878.166 151.732 854.689 129.875 841.74 140.399 825.546 129.064 824.74 106.4 801.262 95.876 790.741 112.876 776.169 108.828 771.314 89.4 747.03 89.4 741.361 106.4 730.029 109.637 720.316 92.637 698.46 102.351 696.837 116.113 667.696 109.637 649.077 78.067 634.506 79.685 627.221 69.161 628.033 48.115 603.748 32.735 591.605 46.497 578.65 44.876 574.605 31.115 549.509 36.783 546.272 54.589 538.986 60.257 536.557 53.781 518.75 69.161 517.13 80.495 479.893 80.944 442.654 80.495 441.033 69.161 423.226 53.781 420.797 60.257 413.512 54.589 410.274 36.783 385.178 31.115 381.132 44.876 368.178 46.497 356.037 32.735 331.752 48.115 332.561 69.161 325.276 79.685 310.705 78.067 292.088 109.637 262.946 116.113 261.326 102.351 239.47 92.637 229.757 109.637 218.424 106.4 212.757 89.4 188.472 89.4 183.616 108.828 169.044 112.876 158.521 95.876 135.045 106.4 134.236 129.064 118.045 140.399 105.094 129.875 81.618 151.732 88.904 165.492 77.572 184.112 60.572 179.255 48.429 206.777 58.953 219.728 54.904 239.156 38.716 239.156 29.812 269.917 46.001 282.869 45.19 300.677 27.382 308.775 27.382 338.725 46.001 345.201 47.62 354.916 32.24 364.631 37.905 393.771 55.714 397.817 61.381 410.771 50.858 422.913 64.618 450.436 80 448.007 88.904 462.578 82.429 474.721 103.474 495.768 116.426 489.292 127.761 495.768 128.569 511.96 154.474 523.291 163.378 510.339 180.377 511.96 185.234 527.34 213.566 524.911 219.234 511.96 226.52 511.96 231.376 520.863 250.804 514.387 254.85 503.864 303.421 511.96 299.373 526.531 317.184 557.291 333.373 552.432 342.276 559.717 342.276 579.145 371.418 590.479 378.705 576.717 394.894 575.909 402.989 588.86 428.084 577.529 426.465 558.909 431.322 550.814 443.464 556.481 453.986 534.624 479.893 534.213 505.797 534.624 516.318 556.481 528.461 550.814 533.32 558.909 531.7 577.529 556.794 588.86 564.889 575.909 581.08 576.717 588.366 590.479 617.508 579.145 617.508 559.717 626.41 552.432 642.601 557.291 660.409 526.531 656.364 511.96 704.933 503.864 708.98 514.387 728.406 520.863 733.262 511.96 740.549 511.96 746.217 524.911 774.549 527.34 779.406 511.96 796.405 510.339 805.31 523.291 831.216 511.96 832.022 495.768 843.357 489.292 856.312 495.768 877.357 474.721 870.881 462.578 879.784 448.007 895.166 450.436 908.926 422.913 898.401 410.771 904.069 397.817 921.88 393.771 927.542 364.631 912.165 354.916 913.782 345.201 Z" fill="#cc0004" fill-opacity="1" stroke="none"/>
 <path id="path-1" d="M254.851 503.863 L250.803 514.387 231.376 520.862 226.519 511.959 219.234 511.959 213.567 524.91 185.235 527.339 180.377 511.959 163.379 510.338 154.474 523.29 128.569 511.959 127.76 495.769 116.427 489.292 103.475 495.769 82.428 474.722 88.904 462.578 80 448.006 64.619 450.437 50.857 422.913 61.381 410.771 55.715 397.818 37.905 393.771 32.24 364.63 47.619 354.916 46 345.202 27.381 338.725 27.381 308.776 45.191 300.677 46 282.87 29.811 269.918 38.715 239.157 54.904 239.157 58.953 219.729 48.43 206.777 60.572 179.254 77.572 184.111 88.904 165.493 81.618 151.732 105.095 129.875 118.046 140.398 134.236 129.065 135.046 106.4 158.521 95.877 169.044 112.875 183.615 108.829 188.472 89.4 212.757 89.4 218.423 106.4 229.756 109.637 239.471 92.638 261.327 102.352 262.945 116.113 C262.945 116.113 159.329 139.586 124.519 193.013 89.712 246.439 94.568 279.63 94.568 326.58 94.568 373.532 117.24 470.674 254.851 503.863" fill="#990002" fill-opacity="1" stroke="none"/>
 <path id="path-2" d="M303.421 511.96 L299.373 526.532 317.184 557.29 333.372 552.432 342.276 559.717 342.276 579.146 371.418 590.479 378.703 576.717 394.894 575.909 402.989 588.86 428.084 577.529 426.465 558.909 431.322 550.816 443.464 556.482 453.986 534.624 381.936 524.097 C381.936 524.097 320.413 471.482 320.413 309.581 320.413 147.681 378.697 92.636 378.697 92.636 L442.654 80.495 441.033 69.161 423.226 53.781 420.797 60.257 413.512 54.59 410.274 36.782 385.178 31.116 381.132 44.876 368.178 46.497 356.036 32.734 331.752 48.115 332.561 69.161 325.276 79.685 310.704 78.067 292.088 109.637 302.605 126.633 295.32 146.061 279.938 142.824 272.17 172.064 283.177 191.394 279.129 209.203 261.321 212.441 258.083 247.25 270.926 256.947 271.034 268.296 251.606 273.153 250.797 306.344 265.368 311.201 266.177 324.96 249.986 333.057 251.916 367.759 271.034 374.341 270.225 384.864 254.034 397.005 261.321 436.673 279.938 438.293 283.177 449.624 268.606 466.624 278.32 496.577 298.558 498.194 Z" fill="#990002" fill-opacity="1" stroke="none"/>
 <path id="path-3" d="M704.928 503.863 L708.976 514.387 728.404 520.862 733.262 511.959 740.547 511.959 746.212 524.91 774.545 527.339 779.402 511.959 796.402 510.338 805.308 523.29 831.211 511.959 832.02 495.769 843.351 489.292 856.306 495.769 877.351 474.722 870.876 462.578 879.78 448.006 895.161 450.437 908.922 422.913 898.4 410.771 904.065 397.818 921.876 393.771 927.542 364.63 912.161 354.916 913.78 345.202 932.397 338.725 932.397 308.776 914.59 300.677 913.78 282.87 929.968 269.918 921.064 239.157 904.876 239.157 900.827 219.729 911.349 206.777 899.208 179.254 882.208 184.111 870.876 165.493 878.163 151.732 854.687 129.875 841.733 140.398 825.544 129.065 824.735 106.4 801.26 95.877 790.736 112.875 776.167 108.829 771.308 89.4 747.024 89.4 741.355 106.4 730.023 109.637 720.309 92.638 698.455 102.352 696.834 116.113 C696.834 116.113 800.451 139.586 835.26 193.013 870.07 246.439 865.214 279.63 865.214 326.58 865.214 373.532 842.542 470.674 704.928 503.863" fill="#990002" fill-opacity="1" stroke="none"/>
 <path id="path-4" d="M656.358 511.96 L660.406 526.532 642.598 557.29 626.407 552.432 617.502 559.717 617.502 579.146 588.361 590.479 581.075 576.717 564.887 575.909 556.79 588.86 531.698 577.529 533.317 558.909 528.459 550.816 516.318 556.482 505.792 534.624 577.845 524.097 C577.845 524.097 639.369 471.482 639.369 309.581 639.369 147.681 581.085 92.636 581.085 92.636 L517.127 80.495 518.745 69.161 536.555 53.781 538.986 60.257 546.27 54.59 549.507 36.782 574.602 31.116 578.649 44.876 591.601 46.497 603.742 32.734 628.029 48.115 627.219 69.161 634.505 79.685 649.075 78.067 667.691 109.637 657.174 126.633 664.461 146.061 679.841 142.824 687.609 172.064 676.602 191.394 680.654 209.203 698.459 212.441 701.699 247.25 688.854 256.947 688.745 268.296 708.173 273.153 708.985 306.344 694.412 311.201 693.603 324.96 709.794 333.057 707.865 367.758 688.745 374.341 689.555 384.864 705.743 397.005 698.459 436.673 679.841 438.293 676.602 449.624 691.173 466.624 681.459 496.577 661.222 498.194 Z" fill="#990002" fill-opacity="1" stroke="none"/>
 <path id="path-5" d="M118.086 406.612 L117.2 408.873 C118.222 409.275 182.144 433.975 277.905 452.719 L279.273 450.517 C183.258 431.8 119.109 407.012 118.086 406.612" fill="#990002" fill-opacity="1" stroke="none"/>
 <path id="path-6" d="M483.265 471.078 C434.096 471.078 386.999 467.144 343.899 461.234 L345.167 463.858 C387.936 469.661 434.588 473.505 483.265 473.505 529.435 473.505 573.551 469.957 614.105 464.502 L615.385 461.883 C574.492 467.445 529.931 471.078 483.265 471.078" fill="#990002" fill-opacity="1" stroke="none"/>
 <path id="path-7" d="M843.696 404.792 C842.691 405.21 778.562 431.416 681.657 450.749 L683.242 452.906 C779.806 433.541 843.619 407.453 844.626 407.036 Z" fill="#990002" fill-opacity="1" stroke="none"/>
 <path id="path-8" d="M99.23 346.568 L98.819 348.962 C99.84 349.138 160.675 359.442 253.244 367.89 L251.916 365.329 C160.338 356.92 100.245 346.744 99.23 346.568" fill="#990002" fill-opacity="1" stroke="none"/>
 <path id="path-9" d="M484.2 376.367 C427.047 376.367 372.526 374.162 323.41 370.951 L323.614 373.401 C372.683 376.599 427.134 378.794 484.2 378.794 538.95 378.794 590.951 376.654 637.946 373.49 L637.946 371.058 C590.959 374.223 538.955 376.367 484.2 376.367" fill="#990002" fill-opacity="1" stroke="none"/>
 <path id="path-10" d="M864.174 344.818 C863.158 345.007 801.185 356.446 706.276 365.492 L704.724 368.075 C800.758 358.99 863.594 347.395 864.621 347.203 Z" fill="#990002" fill-opacity="1" stroke="none"/>
 <path id="path-11" d="M479.527 145.665 C431.433 145.665 385.543 149.41 343.502 155.118 L342.241 157.739 C384.609 151.925 430.937 148.094 479.527 148.094 527.765 148.094 574.055 151.763 616.593 157.349 L615.666 154.783 C573.372 149.275 527.408 145.665 479.527 145.665" fill="#990002" fill-opacity="1" stroke="none"/>
 <path id="path-12" d="M850.808 210.296 C849.775 209.896 785.337 185.348 688.71 166.625 L689.262 169.203 C785.081 187.853 848.904 212.163 849.931 212.56 Z" fill="#990002" fill-opacity="1" stroke="none"/>
 <path id="path-13" d="M113.017 212.132 L113.937 214.38 C114.935 213.972 177.294 188.832 272.171 169.635 271.817 168.872 271.483 168.116 271.186 167.362 176.335 186.599 114.017 211.724 113.017 212.132" fill="#990002" fill-opacity="1" stroke="none"/>
 <path id="path-14" d="M93.944 271.967 L94.388 274.355 C95.473 274.153 165.5 261.324 270.927 252.088 L268.532 249.864 C164.195 259.098 95.024 271.766 93.944 271.967" fill="#990002" fill-opacity="1" stroke="none"/>
 <path id="path-15" d="M477.381 240.376 C422.803 240.376 370.958 242.473 324.006 245.579 L323.334 248.058 C370.455 244.925 422.538 242.803 477.381 242.803 533.822 242.803 587.725 244.92 636.445 248.024 L635.769 245.545 C587.219 242.468 533.553 240.376 477.381 240.376" fill="#990002" fill-opacity="1" stroke="none"/>
 <path id="path-16" d="M865.815 270.208 C864.715 270.022 795.043 258.314 691.136 249.624 L690.607 252.016 C794.568 260.699 864.31 272.415 865.408 272.602 Z" fill="#990002" fill-opacity="1" stroke="none"/>
 <path id="path-17" d="M118.086 411.469 L117.2 413.731 C118.222 414.131 182.144 438.831 277.905 457.577 L279.273 455.374 C183.258 436.657 119.109 411.869 118.086 411.469" fill="#990002" fill-opacity="1" stroke="none"/>
 <path id="path-18" d="M483.265 475.935 C434.096 475.935 386.999 472 343.899 466.092 L345.167 468.715 C387.936 474.518 434.588 478.361 483.265 478.361 529.435 478.361 573.551 474.814 614.105 469.358 L615.385 466.74 C574.492 472.302 529.931 475.935 483.265 475.935" fill="#990002" fill-opacity="1" stroke="none"/>
 <path id="path-19" d="M843.696 409.648 C842.691 410.067 778.562 436.272 681.657 455.606 L683.242 457.763 C779.806 438.398 843.619 412.31 844.626 411.892 Z" fill="#990002" fill-opacity="1" stroke="none"/>
 <path id="path-20" d="M99.23 351.424 L98.819 353.819 C99.84 353.996 160.675 364.3 253.244 372.747 L251.916 370.186 C160.338 361.776 100.245 351.6 99.23 351.424" fill="#990002" fill-opacity="1" stroke="none"/>
 <path id="path-21" d="M484.2 381.224 C427.047 381.224 372.526 379.019 323.41 375.808 L323.614 378.257 C372.683 381.456 427.134 383.652 484.2 383.652 538.95 383.652 590.951 381.511 637.946 378.347 L637.946 375.915 C590.959 379.08 538.955 381.224 484.2 381.224" fill="#990002" fill-opacity="1" stroke="none"/>
 <path id="path-22" d="M864.174 349.675 C863.158 349.865 801.185 361.302 706.276 370.349 L704.724 372.932 C800.758 363.846 863.594 352.253 864.621 352.06 Z" fill="#990002" fill-opacity="1" stroke="none"/>
 <path id="path-23" d="M479.527 150.522 C431.433 150.522 385.543 154.267 343.502 159.975 L342.241 162.597 C384.609 156.781 430.937 152.95 479.527 152.95 527.765 152.95 574.055 156.621 616.593 162.206 L615.666 159.641 C573.372 154.133 527.408 150.522 479.527 150.522" fill="#990002" fill-opacity="1" stroke="none"/>
 <path id="path-24" d="M850.808 215.153 C849.775 214.753 785.337 190.206 688.71 171.481 L689.262 174.06 C785.081 192.709 848.904 217.02 849.931 217.418 Z" fill="#990002" fill-opacity="1" stroke="none"/>
 <path id="path-25" d="M113.017 216.99 L113.937 219.238 C114.935 218.828 177.294 193.688 272.171 174.492 271.817 173.728 271.483 172.974 271.186 172.219 176.335 191.456 114.017 216.58 113.017 216.99" fill="#990002" fill-opacity="1" stroke="none"/>
 <path id="path-26" d="M93.944 276.824 L94.388 279.211 C95.473 279.01 165.5 266.181 270.927 256.946 L268.532 254.721 C164.195 263.954 95.024 276.622 93.944 276.824" fill="#990002" fill-opacity="1" stroke="none"/>
 <path id="path-27" d="M477.381 245.232 C422.803 245.232 370.958 247.331 324.006 250.438 L323.334 252.915 C370.455 249.782 422.538 247.66 477.381 247.66 533.822 247.66 587.725 249.778 636.445 252.88 L635.769 250.403 C587.219 247.326 533.553 245.232 477.381 245.232" fill="#990002" fill-opacity="1" stroke="none"/>
 <path id="path-28" d="M865.815 275.066 C864.715 274.878 795.043 263.171 691.136 254.48 L690.607 256.874 C794.568 265.557 864.31 277.271 865.408 277.459 Z" fill="#990002" fill-opacity="1" stroke="none"/>
 <path id="path-29" d="M118.086 409.039 L117.2 411.302 C118.222 411.703 182.144 436.402 277.905 455.148 L279.273 452.944 C183.258 434.23 119.109 409.44 118.086 409.039" fill="#000000" fill-opacity="1" stroke="none"/>
 <path id="path-30" d="M483.265 473.505 C434.096 473.505 386.999 469.572 343.899 463.664 L345.167 466.288 C387.936 472.088 434.588 475.934 483.265 475.934 529.435 475.934 573.551 472.384 614.105 466.929 L615.385 464.311 C574.492 469.872 529.931 473.505 483.265 473.505" fill="#000000" fill-opacity="1" stroke="none"/>
 <path id="path-31" d="M843.696 407.221 C842.691 407.639 778.562 433.844 681.657 453.178 L683.242 455.336 C779.806 435.97 843.619 409.881 844.626 409.465 Z" fill="#000000" fill-opacity="1" stroke="none"/>
 <path id="path-32" d="M99.23 348.996 L98.819 351.391 C99.84 351.568 160.675 361.871 253.244 370.319 L251.916 367.757 C160.338 359.348 100.245 349.172 99.23 348.996" fill="#000000" fill-opacity="1" stroke="none"/>
 <path id="path-33" d="M484.2 378.794 C427.047 378.794 372.526 376.589 323.41 373.381 L323.614 375.828 C372.683 379.026 427.134 381.223 484.2 381.223 538.95 381.223 590.951 379.082 637.946 375.92 L637.946 373.485 C590.959 376.652 538.955 378.794 484.2 378.794" fill="#000000" fill-opacity="1" stroke="none"/>
 <path id="path-34" d="M864.174 347.246 C863.158 347.435 801.185 358.874 706.276 367.921 L704.724 370.503 C800.758 361.418 863.594 349.825 864.621 349.633 Z" fill="#000000" fill-opacity="1" stroke="none"/>
 <path id="path-35" d="M479.527 148.094 C431.433 148.094 385.543 151.839 343.502 157.546 L342.241 160.168 C384.609 154.352 430.937 150.522 479.527 150.522 527.765 150.522 574.055 154.191 616.593 159.778 L615.666 157.212 C573.372 151.704 527.408 148.094 479.527 148.094" fill="#000000" fill-opacity="1" stroke="none"/>
 <path id="path-36" d="M850.808 212.725 C849.775 212.325 785.337 187.777 688.71 169.053 L689.262 171.631 C785.081 190.281 848.904 214.591 849.931 214.989 Z" fill="#000000" fill-opacity="1" stroke="none"/>
 <path id="path-37" d="M113.017 214.561 L113.937 216.81 C114.935 216.401 177.294 191.261 272.171 172.063 271.817 171.301 271.483 170.545 271.186 169.79 176.335 189.027 114.017 214.153 113.017 214.561" fill="#000000" fill-opacity="1" stroke="none"/>
 <path id="path-38" d="M93.944 274.395 L94.388 276.783 C95.473 276.582 165.5 263.753 270.927 254.517 L268.532 252.293 C164.195 261.526 95.024 274.194 93.944 274.395" fill="#000000" fill-opacity="1" stroke="none"/>
 <path id="path-39" d="M477.381 242.804 C422.803 242.804 370.958 244.903 324.006 248.008 L323.334 250.487 C370.455 247.353 422.538 245.232 477.381 245.232 533.822 245.232 587.725 247.348 636.445 250.452 L635.769 247.974 C587.219 244.897 533.553 242.804 477.381 242.804" fill="#000000" fill-opacity="1" stroke="none"/>
 <path id="path-40" d="M865.815 272.638 C864.715 272.45 795.043 260.743 691.136 252.053 L690.607 254.445 C794.568 263.127 864.31 274.843 865.408 275.03 Z" fill="#000000" fill-opacity="1" stroke="none"/>
 <path id="path-41" d="M929.308 334.693 C922.842 337.31 917.194 337.265 911.82 341.107 911.275 347.538 909.863 352.93 910.074 357.425 914.583 361.075 920.373 363.443 924.646 367.333 925.57 375.646 920.685 383.186 919.398 391.23 913.992 392.774 908.096 393.043 903.662 392.978 903.165 398.821 894.792 406.657 894.919 411.046 895.091 416.983 904.048 418.589 904.828 425.617 902.308 433.981 898.606 441.153 893.17 446.599 887.432 445.683 883.707 443.965 878.599 443.683 874.97 448.799 872.125 454.693 867.526 458.838 865.303 467.339 873.57 469.367 873.353 475.158 873.091 482.217 858.763 487.303 853.536 490.893 850.135 488.467 846.842 485.934 843.047 483.901 838.662 487.473 831.834 489.737 828.475 492.643 826.626 497.925 828.853 504.991 826.727 510.711 819.932 512.465 814.833 515.911 807.494 517.122 803.419 514.785 804.29 507.502 799.917 505.465 793.747 506.383 784.679 507.934 777.186 508.381 774.799 512.989 772.888 518.067 771.939 524.114 764.998 525.25 757.056 523.363 750.957 522.95 748.848 514.181 745.576 506.57 735.223 506.049 732.274 508.927 729.322 511.805 727.643 515.958 720.926 513.738 715.35 510.377 710.743 506.049 750.842 491.943 784.451 485.243 813.594 456.91 815.938 456.726 819.263 451.245 823.229 448.346 839.363 428.733 851.729 405.349 860.532 378.406 870.659 344.618 873.111 307.303 868.691 271.165 863.368 227.645 846.944 196.193 825.559 171.5 790.918 142.198 750.14 127.828 702.583 112.632 700.944 102.226 711.19 97.305 720.067 97.478 723.344 102.361 725.656 108.21 729.393 112.632 733.86 110.643 740.843 110.924 745.13 110.301 747.35 104.361 748.896 97.747 751.539 92.233 757.724 92.277 763.294 91.458 769.027 93.398 771.558 98.831 771.516 106.84 774.272 112.05 780.335 112.254 786.472 116.789 794.67 115.548 796.391 109.69 799.831 105.554 803.414 101.558 808.997 102.873 816.283 106.994 820.898 109.719 822.131 118.741 822.63 123.927 823.229 131.284 830.603 134.789 836.274 140 842.466 144.689 847.575 142.03 850.638 137.32 855.87 134.78 862.83 138.894 867.3 145.495 872.188 151.682 871.032 157.522 867.587 161.07 866.942 167.419 872.594 173.23 877.303 179.983 880.932 187.818 884.888 188.273 889.432 185.906 894.919 184.905 899.084 192.202 904.098 198.649 906.575 207.635 902.731 211.561 898.767 215.37 895.503 219.874 898.463 226.559 900.05 237.754 904.828 244.354 908.922 244.13 914.86 244.899 919.982 244.937 922.363 252.658 925.654 259.47 926.391 268.833 921.606 273.176 914.563 275.266 911.238 281.072 913.926 286.34 911.921 298.766 914.154 306.134 919.086 305.302 923.775 309.176 928.724 310.214 929.43 317.845 931.767 327.627 929.308 334.693 M664.114 506.049 C664.693 504.486 665.743 503.402 665.863 501.387 670.758 500.411 679.675 500.129 685.098 500.221 688.835 488.025 693.986 477.249 697.337 464.666 694.007 456.075 679.269 452.463 684.512 440.769 691.87 441.009 695.356 440.897 701.419 441.351 707.337 428.038 708.27 409.739 711.907 394.143 706.038 390.299 700.851 385.773 695.005 381.903 695.123 380.081 694.612 377.625 695.589 376.659 698.941 375.683 709.455 374.013 713.655 370.249 715.307 357.327 716.35 343.797 715.99 328.866 709.035 323.868 696.454 326.701 699.084 313.129 704.007 312.186 710.534 309.711 714.823 307.884 714.367 298.566 715.297 282.574 714.239 270.581 710.22 265.197 702.056 266.589 695.005 265.335 689.294 252.815 703.038 252.805 708.994 248.433 705.754 235.953 707.191 217.337 702 205.303 696.401 205.815 691.614 203.859 685.68 204.138 683.271 197.466 682.459 195.442 681.651 190.181 686.103 184.516 690.488 178.669 694.423 174.997 693.388 167.919 691.067 161.683 689.175 155.18 687.151 148.211 684.89 143.23 682.766 137.112 678.267 137.889 673.187 137.862 668.779 138.277 666.241 134.016 663.696 129.76 662.367 124.289 664.958 120.663 666.674 116.162 670.526 113.798 678.838 116.537 688.276 119.158 696.756 121.375 719.955 127.441 738.851 134.658 760.283 142.939 788.817 153.968 808.378 165.972 825.559 186.07 840.25 203.251 851.012 229.166 857.038 253.68 873.444 320.478 853.674 385.649 825.559 429.697 806.543 458.115 776.578 475.058 743.964 488.563 718.586 494.475 691.167 504.33 664.114 506.049 M658.286 494.39 C655.406 501.222 651.491 507.023 650.71 515.958 662.949 528.257 648.854 543.339 640.8 552.093 636.49 551.751 630.949 548.093 626.229 546.265 623.002 550.999 617.323 553.287 613.994 557.921 615.245 561.914 614.097 568.307 615.158 572.491 608.46 579.649 599.23 583.449 589.513 585.314 586.913 581.273 584.789 577.173 584.851 571.907 579.125 573.039 571.224 572.21 564.45 571.327 561.886 576.338 558.589 580.618 555.125 584.73 549.291 581.939 542.034 578.334 536.475 573.659 537.568 567.563 538.099 560.906 539.971 555.589 535.202 552.781 532.856 547.549 528.314 544.517 525.291 546.738 522.677 549.37 518.403 550.343 516.581 545.563 512.438 543.101 511.413 537.522 534.487 535.021 554.822 533.97 579.604 528.194 600.413 510.505 610.939 482.822 622.15 456.506 628.987 440.466 635.166 423.213 637.889 405.218 640.774 386.127 640.969 367.326 642.553 346.349 645.55 306.573 642.843 258.674 636.723 222.206 628.066 170.633 611.299 119.922 582.518 88.737 563.602 82.401 541.165 79.303 521.903 77.662 521.791 67.938 529.243 63.585 535.307 58.429 537.842 60.716 538.367 61.877 540.393 64.71 544.036 62.281 546.269 59.01 551.629 57.845 550.866 52.978 551.533 44.163 553.958 39.194 560.482 37.026 565.051 34.798 573.193 34.533 574.071 39.249 576.019 44.137 576.107 47.937 582.188 48.554 588.878 50.678 595.339 51.435 598.015 46.338 602.055 42.606 605.25 38.03 610.187 42.546 619.594 44.216 624.175 49.33 623.77 56.615 623.77 65.52 623.901 71.834 627.578 76.313 630.911 81.141 634.971 85.24 639.671 85.081 641.647 82.198 646.63 82.325 653.517 88.841 657.986 97.78 662.367 106.803 658.987 113.137 655.306 119.17 653.043 126.621 655.867 134.092 659.536 140.719 661.202 149.351 665.869 150.777 669.867 146.278 676.939 147.02 680.033 156.586 683.8 161.269 684.89 170.349 680.033 178.038 676.39 182.086 672.746 188.158 672.243 194.206 676.207 208.099 679.269 213.463 682.727 212.67 690.395 214.47 692.675 213.463 694.467 222.925 697.33 235.582 696.171 244.354 686.047 245.983 682.393 259.34 685.68 272.913 691.096 274.191 695.57 275.231 702.583 274.662 706.233 282.15 705.904 296.884 704.915 302.637 700.226 304.635 695.151 304.086 691.508 307.884 689.394 312.898 689.506 319.805 690.343 327.115 696.408 331.29 700.69 331.174 706.663 334.693 706.77 344.218 706.447 352.97 704.915 363.834 697.135 366.559 694.283 367.114 686.847 369.665 685.73 375.155 684.71 380.737 685.098 387.73 690.937 390.83 695.683 395.019 701.419 398.222 702.081 410.102 698.244 421.619 695.589 432.027 689.469 433.466 682.427 432.27 677.521 433.777 676.081 440.301 672.328 444.514 672.858 453.009 677.553 457.059 680.894 462.459 685.68 466.415 683.276 476.25 680.571 485.786 676.354 493.809 668.95 494.509 664.391 492.69 658.286 494.39 M442.379 550.343 C438.109 549.37 435.493 546.738 432.471 544.517 427.927 547.549 425.583 552.781 420.814 555.589 422.685 560.906 423.215 567.563 424.311 573.659 418.753 578.334 411.493 581.939 405.661 584.73 402.197 580.618 398.899 576.338 396.335 571.327 389.559 572.21 381.659 573.039 375.935 571.907 375.995 577.173 373.87 581.273 371.272 585.314 361.555 583.449 352.323 579.649 345.627 572.491 346.688 568.307 345.539 561.914 346.792 557.921 343.461 553.287 337.782 550.999 334.554 546.265 329.837 548.093 324.297 551.751 319.982 552.093 311.931 543.339 297.837 528.257 310.075 515.958 309.292 507.023 305.38 501.222 302.498 494.39 296.394 492.69 291.835 494.509 284.431 493.809 280.213 485.786 277.507 476.25 275.104 466.415 279.891 462.459 283.235 457.059 287.927 453.009 288.458 444.514 284.703 440.301 283.265 433.777 278.357 432.27 271.317 433.466 265.197 432.027 262.538 421.619 258.705 410.102 259.367 398.222 265.102 395.019 269.85 390.83 275.687 387.73 276.077 380.737 275.054 375.155 273.938 369.665 266.5 367.114 263.651 366.559 255.871 363.834 254.338 352.97 254.017 344.218 254.123 334.693 260.094 331.174 264.374 331.29 270.442 327.115 271.279 319.805 271.39 312.898 269.276 307.884 265.635 304.086 260.559 304.635 255.871 302.637 254.88 296.884 254.554 282.15 258.202 274.662 265.215 275.231 269.69 274.191 275.104 272.913 278.39 259.34 274.739 245.983 264.614 244.354 263.454 235.582 266.318 222.925 268.11 213.464 270.39 214.47 278.057 212.67 281.515 213.464 284.578 208.099 288.542 194.206 288.039 188.158 284.396 182.086 280.753 178.038 275.896 170.349 276.984 161.269 280.753 156.586 283.847 147.02 290.919 146.278 294.917 150.777 299.584 149.351 301.249 140.719 304.918 134.092 307.743 126.621 305.479 119.17 301.799 113.137 298.418 106.803 302.799 97.78 307.267 88.841 314.155 82.325 319.138 82.198 321.112 85.081 325.813 85.24 329.874 81.141 333.205 76.313 336.886 71.834 337.015 65.52 337.015 56.615 336.61 49.33 341.191 44.216 350.598 42.546 355.535 38.03 358.729 42.606 362.77 46.338 365.446 51.435 371.909 50.678 378.598 48.554 384.677 47.937 384.767 44.137 386.714 39.249 387.593 34.533 395.734 34.798 400.303 37.026 406.827 39.194 409.253 44.163 409.919 52.978 409.158 57.845 414.517 59.01 416.75 62.281 420.393 64.71 422.418 61.877 422.944 60.716 425.477 58.429 431.541 63.585 438.994 67.938 438.882 77.662 428.182 78.574 416.511 79.964 405.002 82.079 403.262 82.354 401.53 82.625 399.753 82.924 397.022 83.382 394.903 83.929 392.503 84.697 387.617 85.874 382.835 87.206 378.267 88.737 349.487 119.922 332.719 170.633 324.062 222.206 317.942 258.674 315.236 306.573 318.235 346.349 319.815 367.326 320.011 386.127 322.896 405.218 325.619 423.213 331.799 440.466 338.635 456.506 349.847 482.822 360.371 510.505 381.182 528.194 405.963 533.97 426.298 535.021 449.374 537.522 448.347 543.101 444.205 545.563 442.379 550.343 M216.82 488.563 C184.206 475.058 154.242 458.115 135.225 429.697 107.112 385.649 87.343 320.478 103.75 253.68 109.771 229.166 120.534 203.251 135.225 186.07 152.406 165.972 171.969 153.968 200.502 142.939 221.934 134.658 240.827 127.441 264.03 121.375 272.507 119.158 281.947 116.537 290.258 113.798 294.111 116.162 295.827 120.663 298.418 124.289 297.089 129.76 294.545 134.016 292.006 138.277 287.597 137.862 282.519 137.889 278.019 137.112 275.896 143.23 273.634 148.211 271.607 155.18 269.716 161.683 267.396 167.919 266.363 174.997 270.297 178.669 274.682 184.516 279.134 190.181 278.325 195.442 277.515 197.466 275.104 204.138 269.171 203.859 264.385 205.815 258.785 205.303 253.595 217.337 255.031 235.953 251.791 248.433 257.747 252.805 271.49 252.815 265.781 265.335 258.729 266.589 250.566 265.197 246.546 270.581 245.489 282.574 246.418 298.566 245.962 307.884 250.25 309.711 256.776 312.186 261.698 313.129 264.331 326.701 251.749 323.868 244.797 328.866 244.437 343.797 245.478 357.327 247.127 370.249 251.329 374.013 261.845 375.683 265.197 376.659 266.172 377.625 265.661 380.081 265.781 381.903 259.933 385.773 254.746 390.299 248.876 394.143 252.515 409.739 253.449 428.038 259.367 441.351 265.427 440.897 268.913 441.009 276.27 440.769 281.515 452.463 266.778 456.075 263.447 464.666 266.798 477.249 271.95 488.025 275.687 500.221 281.11 500.129 290.026 500.411 294.921 501.387 295.042 503.402 296.094 504.486 296.67 506.049 269.618 504.33 242.198 494.475 216.82 488.563 M233.141 515.958 C231.462 511.805 228.513 508.927 225.563 506.049 215.207 506.57 211.937 514.181 209.826 522.95 203.73 523.363 195.786 525.25 188.843 524.114 187.898 518.067 185.984 512.989 183.599 508.381 176.106 507.934 167.038 506.383 160.867 505.465 156.495 507.502 157.366 514.785 153.291 517.122 145.953 515.911 140.851 512.465 134.058 510.711 131.932 504.991 134.159 497.925 132.309 492.643 128.951 489.737 122.122 487.473 117.738 483.901 113.943 485.934 110.65 488.467 107.249 490.893 102.022 487.303 87.694 482.217 87.43 475.158 87.215 469.367 95.48 467.339 93.259 458.838 88.662 454.693 85.813 448.799 82.185 443.683 77.078 443.965 73.353 445.683 67.614 446.599 62.179 441.153 58.475 433.981 55.958 425.617 56.736 418.589 65.695 416.983 65.866 411.046 65.993 406.657 57.622 398.821 57.123 392.978 52.687 393.043 46.794 392.774 41.387 391.23 40.102 383.186 35.215 375.646 36.142 367.333 40.411 363.443 46.202 361.075 50.713 357.425 50.921 352.93 49.51 347.538 48.964 341.107 43.591 337.265 37.942 337.31 31.478 334.693 29.018 327.627 31.355 317.845 32.061 310.214 37.01 309.176 41.698 305.302 46.632 306.134 48.865 298.766 46.858 286.34 49.546 281.072 46.222 275.266 39.182 273.176 34.393 268.833 35.131 259.47 38.422 252.658 40.803 244.937 45.926 244.899 51.862 244.13 55.958 244.354 60.735 237.754 62.323 226.559 65.283 219.874 62.018 215.37 58.054 211.561 54.208 207.635 56.686 198.649 61.701 192.202 65.866 184.905 71.351 185.906 75.898 188.273 79.854 187.818 83.48 179.983 88.191 173.23 93.842 167.419 93.198 161.07 89.75 157.522 88.597 151.682 93.483 145.495 97.955 138.894 104.915 134.78 110.147 137.32 113.208 142.03 118.32 144.689 124.511 140 130.181 134.789 137.555 131.284 138.154 123.927 138.652 118.741 139.887 109.719 144.503 106.994 151.79 102.873 157.371 101.558 160.953 105.554 164.393 109.69 166.114 115.548 174.313 116.789 180.45 112.254 186.513 112.05 189.269 106.84 189.227 98.831 191.759 93.398 197.49 91.458 203.059 92.277 209.245 92.233 211.89 97.747 213.435 104.361 215.655 110.301 219.941 110.924 226.922 110.643 231.391 112.632 235.129 108.21 237.439 102.361 240.718 97.478 249.595 97.305 259.84 102.226 258.202 112.632 210.645 127.828 169.869 142.198 135.225 171.5 113.84 196.193 97.415 227.645 92.094 271.165 87.674 307.303 90.126 344.618 100.253 378.406 109.057 405.349 121.419 428.733 137.555 448.346 141.523 451.245 144.847 456.726 147.19 456.91 176.333 485.243 209.944 491.943 250.043 506.049 245.435 510.377 239.858 513.738 233.141 515.958 M569.814 522.242 C569.31 522.269 568.819 522.275 568.272 522.367 544.713 528.494 513.657 531.054 483.469 531.273 482.444 531.277 481.419 531.279 480.393 531.277 479.366 531.279 478.34 531.277 477.315 531.273 447.129 531.054 416.074 528.494 392.513 522.367 391.966 522.275 391.475 522.269 390.971 522.242 382.734 519.019 375.716 514.202 370.69 506.63 321.006 437.389 317.999 326.495 331.057 222.787 335.875 198.466 343.618 177.066 349.708 154.014 354.778 139.39 361.875 122.225 370.69 107.387 378.825 93.691 388.573 93.261 406.243 89.902 440.742 83.342 481.917 82.566 521.064 84.948 532.73 86.219 543.971 87.891 554.542 89.902 572.21 93.261 581.959 93.691 590.095 107.387 598.909 122.225 606.005 139.39 611.077 154.014 617.167 177.066 624.909 198.466 629.727 222.787 642.786 326.495 639.779 437.389 590.095 506.63 585.066 514.202 578.05 519.019 569.814 522.242 M936.299 303.221 C929.726 302.109 926.194 300.182 919.982 297.974 L919.982 282.821 C925.611 280.095 930.5 276.633 936.299 274.078 934.246 259.62 930.386 246.968 926.391 234.445 919.87 232.589 916.886 234.171 910.074 233.28 907.114 230.602 907.091 224.993 905.994 220.457 909.038 215.147 915.036 212.792 918.817 208.217 912.854 196.888 909.383 183.067 901.331 173.831 895.64 175.135 890.62 177.109 885.011 178.493 882.82 173.562 876.109 170.794 875.686 165.671 875.174 159.465 883.556 154.353 883.843 147.02 874.982 138.785 867.559 129.113 857.038 122.541 851.068 125.706 846.406 130.174 841.298 134.197 829.114 131.652 829.543 114.224 829.639 102.724 824.594 99.426 819.291 96.893 812.156 94.565 808.145 93.256 802.863 90.521 800.498 91.067 794.944 92.354 795.138 103.124 791.172 107.388 787.431 107.245 785.404 105.384 781.266 105.638 779.662 99.86 777.817 94.322 777.77 86.988 769.672 81.374 755.3 85.52 746.297 84.074 742.522 88.267 741.384 95.093 739.886 101.558 728.891 106.122 729.271 91.874 724.147 86.988 709.244 87.077 693.469 91.253 695.005 109.719 687.591 107.805 679.586 106.489 672.278 104.473 666.439 93.407 657.71 85.233 653.043 73 648.827 70.873 643.026 73.206 639.053 74.747 628.567 70.76 633.634 55.303 635.555 45.024 625.398 38.473 614.181 32.984 604.083 26.373 597.211 31.793 594.835 45.09 583.101 39.194 581.345 34.466 580.734 29.158 580.188 24.624 564.07 25.36 557.938 31.006 544.634 32.784 545.523 39.276 543.818 45.907 543.466 51.435 538.755 45.435 534.587 47.937 527.147 54.349 521.226 59.453 512.201 63.253 514.325 77.079 493.11 76.134 474.589 75.845 455.887 76.734 452.783 76.828 449.654 76.937 446.458 77.079 448.584 63.253 439.559 59.453 433.638 54.349 426.198 47.937 422.031 45.435 417.317 51.435 416.966 45.907 415.262 39.276 416.151 32.784 402.845 31.006 396.714 25.36 380.598 24.624 380.051 29.158 379.439 34.466 377.685 39.194 365.947 45.09 363.575 31.793 356.701 26.373 346.604 32.984 335.387 38.473 325.229 45.024 327.152 55.303 332.218 70.76 321.733 74.747 317.758 73.206 311.959 70.873 307.743 73 303.075 85.233 294.347 93.407 288.508 104.473 281.201 106.489 273.191 107.805 265.78 109.719 267.317 91.253 251.542 87.077 236.638 86.988 231.514 91.874 231.893 106.122 220.901 101.558 219.401 95.093 218.261 88.267 214.49 84.074 205.484 85.52 191.114 81.374 183.015 86.988 182.969 94.322 181.123 99.86 179.519 105.638 175.379 105.384 173.354 107.245 169.611 107.388 165.645 103.124 165.839 92.354 160.285 91.067 157.922 90.521 152.642 93.256 148.629 94.565 141.491 96.893 136.193 99.426 131.143 102.724 131.242 114.224 131.672 131.652 119.486 134.197 114.378 130.174 109.716 125.706 103.75 122.541 93.226 129.113 85.803 138.785 76.94 147.02 77.23 154.353 85.612 159.465 85.099 165.671 84.676 170.794 77.963 173.562 75.772 178.493 70.165 177.109 65.143 175.135 59.454 173.831 51.402 183.067 47.93 196.888 41.969 208.217 45.749 212.792 51.747 215.147 54.792 220.457 53.693 224.993 53.67 230.602 50.713 233.28 43.899 234.171 40.918 232.589 34.393 234.445 30.401 246.968 26.539 259.62 24.484 274.078 30.283 276.633 35.174 280.095 40.803 282.821 L40.803 297.974 C34.59 300.182 31.061 302.109 24.484 303.221 20.011 312.234 22.546 333.388 23.318 344.018 28.151 343.683 36.299 344.995 40.803 346.349 42.335 347.93 41.96 351.411 41.969 354.51 35.951 357.291 30.034 358.929 26.815 363.253 30.404 376.179 30.57 392.526 39.055 400.554 45.795 399.123 56.733 400.269 55.958 411.046 55.575 416.381 46 418.795 46.048 425.617 46.075 429.326 51.896 438.473 53.626 441.937 55.807 446.299 59.196 455.175 63.535 455.923 69.198 456.899 71.251 451.805 79.271 453.591 81.025 456.698 83.935 458.641 85.099 462.335 80.921 465.929 78.594 471.375 75.772 476.325 79.763 480.342 81.932 485.449 86.266 489.727 88.787 492.221 100.479 502.878 103.75 502.551 105.867 502.339 110.572 496.253 114.242 494.973 125.894 490.918 125.095 505.051 123.567 515.375 134.535 519.375 146.59 525.363 158.536 526.446 161.642 523.53 162.527 518.393 164.949 514.79 168.947 515.154 170.642 514.793 174.856 515.375 178.774 520.029 179.89 527.81 181.85 532.859 191.787 533.529 207.236 530.169 217.986 528.778 220.292 525.45 219.059 518.583 222.65 516.539 224.672 519.955 226.966 523.101 229.643 525.863 240.137 522.694 248.343 520.194 257.036 515.958 258.471 512.813 257.021 510.003 258.785 507.797 271.044 510.706 285.719 510.967 300.167 515.375 297.743 520.819 291.525 524.114 292.006 529.945 292.462 535.427 300.358 542.361 304.246 547.43 309.499 554.275 313.363 560.669 318.817 563.166 322.904 560.649 326.962 558.101 331.641 556.171 333.87 557.827 336.973 558.611 338.051 561.419 337.041 567.013 336.686 573.263 336.886 580.067 348.865 585.382 360.749 590.497 373.022 594.055 376.957 588.146 382.207 575.294 391.09 579.486 396.879 582.218 394.943 594.438 403.33 595.806 412.064 588.999 423.027 584.418 432.471 578.321 431.462 569.769 428.323 561.798 431.887 556.171 437.668 554.51 438.599 561.589 444.127 562.001 449.373 554.443 455.703 545.498 458.687 537.546 461.063 537.658 463.432 537.753 465.798 537.829 470.081 537.974 474.438 538.042 478.835 538.055 479.354 538.055 479.875 538.065 480.393 538.067 480.909 538.065 481.432 538.055 481.95 538.055 486.347 538.042 490.703 537.974 494.99 537.829 497.353 537.753 499.723 537.658 502.097 537.546 505.081 545.498 511.412 554.443 516.659 562.001 522.183 561.589 523.115 554.51 528.895 556.171 532.463 561.798 529.323 569.769 528.314 578.321 537.758 584.418 548.721 588.999 557.453 595.806 565.842 594.438 563.906 582.218 569.696 579.486 578.578 575.294 583.828 588.146 587.763 594.055 600.039 590.497 611.919 585.382 623.901 580.067 624.101 573.263 623.745 567.013 622.734 561.419 623.814 558.611 626.912 557.827 629.145 556.171 633.825 558.101 637.88 560.649 641.967 563.166 647.422 560.669 651.285 554.275 656.539 547.43 660.427 542.361 668.323 535.427 668.779 529.945 669.261 524.114 663.042 520.819 660.618 515.375 675.064 510.967 689.74 510.706 702 507.797 703.764 510.003 702.315 512.813 703.747 515.958 712.442 520.194 720.646 522.694 731.142 525.863 733.818 523.101 736.112 519.955 738.134 516.539 741.726 518.583 740.494 525.45 742.797 528.778 753.548 530.169 768.999 533.529 778.935 532.859 780.894 527.81 782.011 520.029 785.927 515.375 790.143 514.793 791.837 515.154 795.837 514.79 798.256 518.393 799.14 523.53 802.249 526.446 814.196 525.363 826.249 519.375 837.22 515.375 835.69 505.051 834.891 490.918 846.544 494.973 850.211 496.253 854.917 502.339 857.038 502.551 860.304 502.878 871.997 492.221 874.519 489.727 878.851 485.449 881.022 480.342 885.011 476.325 882.188 471.375 879.865 465.929 875.686 462.335 876.847 458.641 879.762 456.698 881.512 453.591 889.532 451.805 891.586 456.899 897.25 455.923 901.59 455.175 904.977 446.299 907.158 441.937 908.888 438.473 914.708 429.326 914.736 425.617 914.783 418.795 905.211 416.381 904.828 411.046 904.054 400.269 914.988 399.123 921.729 400.554 930.214 392.526 930.38 376.179 933.97 363.253 930.748 358.929 924.835 357.291 918.817 354.51 918.826 351.411 918.45 347.93 919.982 346.349 924.484 344.995 932.632 343.683 937.464 344.018 938.239 333.388 940.772 312.234 936.299 303.221" fill="#000000" fill-opacity="1" stroke="none"/>
 <path id="path-42" d="M171.023 174.58 C173.221 172.942 175.321 171.062 177.345 168.984 179.146 167.136 180.171 165.799 180.442 164.946 180.714 164.091 179.971 163.992 178.183 164.643 176.622 165.21 174.753 166.188 172.562 167.57 170.373 168.951 168.114 170.726 165.798 172.976 164.124 174.602 163.01 175.874 162.469 176.752 161.446 178.416 162.233 178.867 164.809 178.015 166.748 177.375 168.826 176.219 171.023 174.58 M177.681 159.908 C179.055 159.363 179.737 159.092 181.083 158.559 177.719 161.794 175.993 163.394 172.501 166.691 174.107 165.616 175.654 164.676 177.138 163.87 178.625 163.063 179.97 162.432 181.178 161.983 183.694 161.048 184.962 161.023 185.058 161.92 185.154 162.819 183.817 164.7 181.013 167.636 178.355 170.42 175.358 173.079 171.953 175.562 168.547 178.044 165.353 179.804 162.43 180.756 160.794 181.29 159.734 181.383 159.263 181.062 158.982 180.869 158.885 180.445 158.981 179.813 158.066 180.761 157.609 181.243 156.695 182.217 155.365 182.659 154.698 182.879 153.365 183.323 163.258 172.871 168.393 168.731 177.681 159.908" fill="#000000" fill-opacity="1" stroke="none"/>
 <path id="path-43" d="M192.84 157.983 C194.121 157.519 194.76 157.291 196.03 156.836 195.118 157.814 194.662 158.3 193.75 159.28 195.313 158.16 196.576 157.299 197.548 156.695 199.205 155.665 200.688 154.914 202.012 154.444 203.509 153.915 204.414 153.834 204.729 154.2 204.908 154.408 204.665 155.443 204.665 155.443 204.728 155.487 207.573 153.292 208.89 152.518 210.208 151.743 211.444 151.155 212.608 150.758 215.097 149.908 216.11 150.202 215.726 151.615 215.521 152.375 214.841 153.532 213.685 155.091 210.201 159.79 208.504 162.12 205.082 167.159 203.596 167.588 202.85 167.804 201.365 168.239 205.073 162.968 206.916 160.544 210.689 155.652 211.593 154.479 211.9 153.776 211.613 153.546 211.325 153.316 210.734 153.353 209.828 153.654 208.581 154.068 207.19 154.815 205.638 155.891 204.086 156.967 202.538 158.406 201.028 160.231 197.625 164.342 195.938 166.414 192.561 170.85 191.107 171.288 190.38 171.508 188.924 171.952 192.833 166.964 194.786 164.663 198.724 160.079 199.748 158.887 200.346 158.072 200.498 157.639 200.722 157.003 200.169 156.898 198.833 157.359 197.617 157.779 196.124 158.591 194.33 159.792 192.539 160.992 190.592 162.704 188.523 164.98 185.116 168.728 183.412 170.635 180.013 174.7 178.58 175.148 177.863 175.374 176.428 175.826 182.989 168.156 186.292 164.83 192.84 157.983" fill="#000000" fill-opacity="1" stroke="none"/>
 <path id="path-44" d="M231.523 147.189 C232.786 146.209 233.733 145.204 234.383 144.168 234.947 143.27 235.098 142.551 234.85 142.021 234.602 141.492 233.741 141.467 232.247 141.955 230.769 142.439 229.445 143.173 228.259 144.147 227.075 145.12 226.126 146.107 225.431 147.108 224.65 148.232 224.486 148.965 224.946 149.321 225.407 149.677 226.258 149.671 227.479 149.301 228.903 148.872 230.258 148.171 231.523 147.189 M225.029 158.833 C226.543 157.772 227.718 156.491 228.585 154.995 229.482 153.441 229.634 152.421 229.062 151.928 228.493 151.436 227.406 151.427 225.779 151.907 224.202 152.372 222.659 153.163 221.117 154.272 219.575 155.383 218.306 156.653 217.346 158.105 216.518 159.356 216.278 160.313 216.654 160.968 217.027 161.623 218.25 161.669 220.293 161.105 221.929 160.653 223.517 159.892 225.029 158.833 M221.069 151.189 C220.753 150.605 221.102 149.611 222.122 148.193 223.398 146.425 225.181 144.667 227.414 142.92 229.646 141.173 231.933 139.871 234.321 139.066 236.63 138.285 238.033 138.32 238.583 139.146 239.133 139.972 238.933 141.219 237.941 142.856 237.023 144.371 235.895 145.701 234.522 146.865 233.75 147.521 231.451 149.025 231.451 149.025 231.462 149.076 232.819 149.433 233.103 149.839 233.634 150.6 233.421 151.881 232.43 153.665 231.259 155.773 229.465 157.807 226.964 159.765 224.462 161.724 221.626 163.141 218.53 163.984 215.741 164.744 213.778 164.724 212.721 163.945 211.664 163.167 212.005 161.548 213.67 159.133 214.65 157.713 215.886 156.385 217.357 155.136 218.827 153.885 222.316 151.78 222.316 151.78 222.309 151.751 221.238 151.503 221.069 151.189" fill="#000000" fill-opacity="1" stroke="none"/>
 <path id="path-45" d="M252.074 142.245 C251.579 141.436 250.556 141.247 248.979 141.686 246.624 142.34 244.487 143.801 242.558 146.029 241.531 147.215 240.559 148.663 239.665 150.377 238.613 152.395 238.298 153.819 238.726 154.641 239.154 155.464 240.195 155.675 241.828 155.265 244.383 154.625 246.65 153.176 248.578 150.941 249.665 149.683 250.545 148.308 251.238 146.824 252.285 144.588 252.569 143.056 252.074 142.245 M253.333 139.051 C253.758 139.264 254.117 139.684 254.405 140.271 254.867 139.343 255.103 138.878 255.585 137.935 256.843 137.587 257.475 137.412 258.751 137.064 255.322 143.911 253.97 146.981 251.078 153.727 250.069 156.08 248.862 158.091 247.447 159.7 244.825 162.683 241.321 164.747 237.031 165.775 234.645 166.348 232.853 166.348 231.685 165.789 230.517 165.231 230.342 163.967 231.127 162.057 232.61 161.679 233.353 161.491 234.837 161.119 234.602 161.928 234.635 162.513 234.943 162.848 235.423 163.367 236.573 163.413 238.357 162.983 241.175 162.301 243.409 160.965 245.026 159.025 245.982 157.879 248.081 153.492 248.081 153.492 248.057 153.475 245.774 155.519 244.553 156.229 243.333 156.94 241.882 157.501 240.215 157.915 237.894 158.491 236.202 158.279 235.195 157.307 234.189 156.336 234.553 154.249 236.275 151.081 237.903 148.092 240.037 145.537 242.586 143.377 245.135 141.217 247.53 139.784 249.812 139.131 251.355 138.688 252.549 138.655 253.333 139.051" fill="#000000" fill-opacity="1" stroke="none"/>
 <path id="path-46" d="M144.769 238.663 C145.997 237.098 146.848 235.155 147.308 232.868 147.717 230.833 147.577 229.26 146.888 228.175 146.2 227.091 144.928 226.807 143.091 227.303 141.488 227.735 139.986 228.65 138.581 230 137.18 231.349 136.244 233.172 135.761 235.495 135.412 237.172 135.371 238.479 135.631 239.435 136.123 241.233 137.588 241.953 140.092 241.504 141.975 241.165 143.542 240.229 144.769 238.663 M135.927 220.526 C137.25 220.107 137.915 219.896 139.252 219.478 138.458 223.367 138.078 225.204 137.326 228.83 138.263 227.747 139.309 226.813 140.466 226.042 141.621 225.271 142.826 224.699 144.08 224.343 146.692 223.602 148.675 223.823 149.997 225.056 151.32 226.292 151.66 228.592 151.005 231.892 150.385 235.02 149.049 237.786 147.021 240.115 144.995 242.443 142.553 243.805 139.74 244.268 138.164 244.527 136.919 244.395 135.991 243.901 135.439 243.608 134.892 243.088 134.352 242.353 134.16 243.279 134.065 243.744 133.872 244.681 132.62 244.896 131.999 245.004 130.766 245.219 132.836 235.308 133.694 231.24 135.927 220.526" fill="#000000" fill-opacity="1" stroke="none"/>
 <path id="path-47" d="M157.042 221.246 C158.472 220.861 159.19 220.667 160.63 220.284 160.415 221.446 160.306 222.027 160.086 223.197 161.138 221.966 162.059 221.02 162.847 220.374 164.191 219.273 165.634 218.514 167.17 218.108 168.908 217.649 170.246 217.688 171.156 218.255 171.674 218.577 172.426 219.981 172.426 219.981 172.642 220.01 174.559 217.506 175.76 216.662 176.962 215.817 178.252 215.215 179.635 214.859 182.591 214.098 184.444 214.644 185.162 216.602 185.548 217.657 185.575 219.218 185.234 221.289 184.206 227.529 183.622 230.799 182.69 236.83 181.136 237.074 180.359 237.197 178.807 237.441 179.796 231.229 180.41 227.875 181.485 221.483 181.744 219.953 181.547 218.997 180.907 218.609 180.264 218.222 179.415 218.165 178.359 218.423 176.904 218.779 175.572 219.577 174.355 220.802 173.138 222.029 172.327 223.771 171.916 226.061 170.991 231.217 170.502 233.845 169.643 238.875 168.135 239.111 167.38 239.23 165.878 239.467 166.854 233.906 167.41 231.005 168.443 225.339 168.712 223.867 168.734 222.829 168.494 222.257 168.134 221.394 167.162 221.155 165.64 221.538 164.255 221.886 162.903 222.718 161.583 224.019 160.262 225.321 159.347 227.29 158.835 229.958 157.991 234.353 157.562 236.562 156.752 240.913 155.298 241.146 154.572 241.262 153.13 241.494 154.661 233.419 155.52 229.311 157.042 221.246" fill="#000000" fill-opacity="1" stroke="none"/>
 <path id="path-48" d="M203.83 213 C204.877 211.768 205.489 210.448 205.661 209.083 205.81 207.893 205.506 206.933 204.755 206.204 204.003 205.474 202.745 205.359 200.979 205.818 199.229 206.272 197.908 207.057 197.002 208.195 196.098 209.333 195.556 210.541 195.371 211.844 195.166 213.305 195.503 214.349 196.401 214.961 197.298 215.572 198.441 215.731 199.829 215.411 201.447 215.036 202.784 214.233 203.83 213 M202.109 229.503 C203.385 228.261 204.167 226.577 204.473 224.448 204.791 222.24 204.461 220.667 203.47 219.773 202.481 218.88 201.078 218.643 199.261 219.037 197.498 219.42 195.973 220.3 194.68 221.659 193.386 223.016 192.579 224.677 192.269 226.648 192.002 228.347 192.286 229.707 193.129 230.753 193.969 231.799 195.474 232.143 197.621 231.781 199.339 231.493 200.834 230.744 202.109 229.503 M192.433 216.992 C191.542 216.057 191.226 214.667 191.494 212.84 191.828 210.557 192.875 208.467 194.631 206.515 196.388 204.563 198.669 203.247 201.522 202.492 204.279 201.761 206.375 201.875 207.797 202.94 209.218 204.003 209.813 205.601 209.555 207.761 209.318 209.758 208.635 211.556 207.55 213.061 206.939 213.909 204.858 215.764 204.858 215.764 204.883 215.905 206.83 216.668 207.398 217.361 208.463 218.667 208.809 220.655 208.447 223.235 208.022 226.281 206.818 228.992 204.818 231.303 202.818 233.612 200.235 234.952 197.033 235.453 194.149 235.904 191.81 235.464 190.058 234.129 188.307 232.797 187.692 230.559 188.213 227.337 188.52 225.443 189.213 223.716 190.287 222.147 191.362 220.58 194.581 218.125 194.581 218.125 194.569 218.045 192.91 217.492 192.433 216.992" fill="#000000" fill-opacity="1" stroke="none"/>
 <path id="path-49" d="M226.465 209.174 C225.591 207.833 224.327 207.394 222.679 207.787 220.213 208.378 218.345 210.19 217.055 213.3 216.368 214.958 215.851 217.064 215.512 219.612 215.113 222.606 215.307 224.771 216.092 226.13 216.876 227.49 218.104 228.015 219.74 227.726 222.3 227.272 224.241 225.542 225.604 222.392 226.373 220.612 226.891 218.57 227.163 216.307 227.573 212.896 227.339 210.515 226.465 209.174 M226.537 204.601 C227.133 204.978 227.719 205.635 228.281 206.563 228.42 205.246 228.485 204.598 228.601 203.335 229.873 203.019 230.504 202.862 231.761 202.548 230.967 211.712 230.029 217.631 229.077 227.183 228.745 230.516 228.18 233.015 227.295 234.831 225.656 238.192 222.868 239.908 218.668 240.567 216.333 240.934 214.361 240.763 212.817 239.988 211.273 239.214 210.497 237.718 210.557 235.327 212.051 235.092 212.796 234.975 214.279 234.738 214.349 235.774 214.631 236.514 215.112 236.978 215.859 237.698 217.136 237.902 218.888 237.626 221.657 237.19 223.484 235.931 224.493 233.63 225.087 232.272 225.865 226.268 225.865 226.268 225.829 226.256 224.071 228.871 223.007 229.678 221.944 230.483 220.591 231.019 218.931 231.298 216.62 231.686 214.673 231.076 213.16 229.427 211.648 227.779 211.209 224.658 211.848 220.002 212.449 215.608 213.783 212.034 215.805 209.247 217.828 206.462 220.012 204.814 222.421 204.215 224.055 203.809 225.453 203.918 226.537 204.601" fill="#000000" fill-opacity="1" stroke="none"/>
 <path id="path-50" d="M144.264 297.639 C146.067 298.903 147.18 301.321 147.609 304.998 145.941 305.058 145.115 305.089 143.475 305.15 143.191 303.499 142.595 302.167 141.69 301.158 140.784 300.149 139.352 299.734 137.432 299.867 134.812 300.049 133.02 301.462 132.035 304.133 131.396 305.863 131.142 307.979 131.25 310.493 131.359 313.023 131.93 315.141 132.966 316.893 134.002 318.646 135.558 319.582 137.718 319.683 139.375 319.762 140.707 319.283 141.68 318.202 142.655 317.119 143.322 315.578 143.664 313.577 145.291 313.595 146.115 313.609 147.773 313.627 147.368 317.311 146.221 319.882 144.393 321.383 142.564 322.886 140.235 323.483 137.487 323.299 134.403 323.094 132.035 321.778 130.211 319.366 128.387 316.953 127.391 314.022 127.202 310.501 126.971 306.182 127.744 302.821 129.646 300.319 131.546 297.819 134.126 296.433 137.372 296.153 140.144 295.913 142.462 296.375 144.264 297.639" fill="#000000" fill-opacity="1" stroke="none"/>
 <path id="path-51" d="M168.354 294.405 C170.334 294.258 171.326 294.184 173.305 294.042 172.675 295.896 171.282 300.298 169.202 307.438 167.638 312.807 166.341 317.112 165.273 320.258 162.761 327.665 160.88 331.165 159.803 332.388 158.727 333.609 156.907 334.03 154.401 333.788 153.79 333.729 153.322 333.665 152.997 333.593 152.672 333.52 152.27 333.402 151.796 333.248 151.836 331.898 151.849 331.186 151.866 329.708 152.61 329.969 153.154 330.137 153.49 330.21 153.826 330.285 154.123 330.333 154.382 330.357 155.183 330.429 155.777 330.36 156.159 330.144 156.544 329.926 156.878 329.641 157.13 329.29 157.213 329.177 157.514 328.566 158.022 327.409 158.531 326.249 158.897 325.348 159.123 324.753 155.217 313.268 153.018 306.156 149.178 295.888 151.145 295.729 152.135 295.653 154.129 295.494 156.932 303.816 158.494 309.146 161.421 318.784 164.179 309.358 165.471 303.645 168.354 294.405" fill="#000000" fill-opacity="1" stroke="none"/>
 <path id="path-52" d="M190.792 310.09 C190.649 301.786 190.558 297.426 190.541 290.55 186.118 297.723 183.922 302.172 179.469 310.128 184.036 310.112 186.317 310.103 190.792 310.09 M191.098 325.786 C191.058 321.734 191.023 319.527 190.95 315.092 184.818 314.998 181.67 314.942 175.4 314.838 175.373 312.74 175.356 311.681 175.326 309.571 181.722 298.622 184.876 291.93 191.33 283.857 192.792 283.747 193.519 283.695 194.963 283.594 194.834 291.347 194.998 298.031 195.221 310.079 197.25 310.074 198.255 310.07 200.244 310.066 200.285 312.136 200.309 313.178 200.349 315.231 198.357 315.203 197.348 315.188 195.315 315.159 195.395 319.663 195.435 321.906 195.483 326.007 193.742 325.923 192.864 325.878 191.098 325.786" fill="#000000" fill-opacity="1" stroke="none"/>
 <path id="path-53" d="M218.214 298.917 C217.04 296.85 215.568 295.906 213.751 295.961 211.035 296.044 209.124 297.926 208.166 301.834 207.654 303.919 207.436 306.694 207.512 310.153 207.602 314.218 208.223 317.295 209.362 319.386 210.502 321.475 211.986 322.518 213.776 322.565 216.579 322.638 218.431 320.819 219.41 316.862 219.963 314.625 220.192 311.939 220.12 308.891 220.012 304.295 219.385 300.982 218.214 298.917 M217.634 292.878 C218.351 293.542 219.084 294.565 219.829 295.955 219.796 294.253 219.779 293.427 219.751 291.845 221.104 291.811 221.77 291.797 223.073 291.774 223.276 303.198 223.535 311.807 223.796 324.299 223.887 328.659 223.549 331.685 222.78 333.702 221.355 337.433 218.507 338.677 213.98 338.527 211.463 338.445 209.271 337.842 207.474 336.582 205.675 335.321 204.643 333.334 204.394 330.262 206.099 330.346 206.942 330.386 208.604 330.459 208.818 331.811 209.218 332.807 209.808 333.499 210.724 334.573 212.164 335.113 214.063 335.185 217.062 335.298 218.911 334.235 219.748 331.565 220.242 329.993 220.284 322.226 220.284 322.226 220.247 322.221 218.724 325.259 217.678 326.057 216.631 326.855 215.218 327.215 213.4 327.153 210.871 327.066 208.56 325.758 206.527 323.103 204.492 320.445 203.386 315.982 203.255 309.659 203.131 303.694 204.066 299.15 205.998 295.984 207.93 292.819 210.275 291.317 212.95 291.217 214.762 291.149 216.338 291.677 217.634 292.878" fill="#000000" fill-opacity="1" stroke="none"/>
 <path id="path-54" d="M148.313 382.57 C150.166 384.044 151.584 386.241 152.568 389.073 151.126 388.754 150.406 388.593 148.97 388.27 148.437 386.969 147.677 385.805 146.684 384.798 145.691 383.791 144.325 383.111 142.601 382.754 140.247 382.265 138.859 382.99 138.435 384.817 138.159 385.999 138.297 387.531 138.86 389.406 139.427 391.294 140.373 392.969 141.683 394.485 142.992 396.001 144.612 397.042 146.544 397.594 148.028 398.017 149.081 397.948 149.714 397.373 150.348 396.798 150.633 395.831 150.577 394.466 151.997 394.826 152.708 395.009 154.136 395.367 154.418 397.915 153.948 399.534 152.705 400.261 151.462 400.988 149.628 400.957 147.175 400.217 144.42 399.386 141.925 397.838 139.679 395.629 137.433 393.42 135.869 391.061 135.032 388.414 134.005 385.17 134.148 382.747 135.449 381.185 136.749 379.622 138.861 379.056 141.781 379.629 144.273 380.118 146.46 381.097 148.313 382.57" fill="#000000" fill-opacity="1" stroke="none"/>
 <path id="path-55" d="M175.73 380.611 C178.312 383.088 179.971 385.703 180.727 388.439 179.088 388.148 178.267 388 176.63 387.704 175.774 385.596 174.546 383.825 172.938 382.404 171.331 380.979 169.284 380.061 166.814 379.635 163.804 379.114 161.618 379.778 160.25 381.561 158.882 383.345 158.68 386.371 159.622 390.535 160.394 393.947 161.846 396.819 163.972 399.289 166.099 401.759 168.775 403.424 172.017 404.244 174.999 404.997 177.023 404.445 178.108 402.521 178.682 401.505 178.976 400.04 178.98 398.111 180.61 398.456 181.427 398.627 183.06 398.965 183.348 402.163 182.699 404.593 181.158 406.232 179.304 408.2 176.38 408.589 172.354 407.513 168.882 406.584 165.723 404.8 162.868 402.225 159.104 398.828 156.547 394.535 155.239 388.951 154.247 384.708 154.594 381.324 156.302 378.855 158.152 376.176 161.366 375.139 165.958 375.913 169.877 376.573 173.147 378.132 175.73 380.611" fill="#000000" fill-opacity="1" stroke="none"/>
 <path id="path-56" d="M203.148 410.762 C205.746 411.302 207.461 410.9 208.274 409.538 208.788 408.676 208.912 407.521 208.649 406.084 208.208 403.667 206.892 401.828 204.701 400.6 203.537 399.946 202.066 399.464 200.29 399.152 196.924 398.561 195.237 398.254 191.87 397.626 192.722 402.163 193.153 404.42 194.02 408.802 197.668 409.608 199.493 410.003 203.148 410.762 M198.933 395.42 C200.725 395.722 202.068 395.684 202.966 395.316 204.378 394.736 204.889 393.351 204.504 391.194 204.116 389.021 203.031 387.446 201.236 386.464 200.226 385.912 198.792 385.504 196.941 385.227 193.906 384.772 192.388 384.538 189.346 384.061 190.09 388.056 190.46 390.078 191.208 394.087 194.298 394.634 195.844 394.902 198.933 395.42 M184.521 379.784 C189.927 380.635 192.629 381.047 198.009 381.827 201.677 382.358 204.476 383.831 206.408 386.334 207.549 387.811 208.271 389.45 208.592 391.254 208.965 393.363 208.716 395.036 207.864 396.223 207.417 396.844 205.732 397.795 205.732 397.795 205.722 397.986 208.76 399.636 209.694 400.592 211.35 402.287 212.416 404.454 212.884 407.035 213.276 409.204 212.997 411.04 212.05 412.506 210.632 414.698 207.868 415.304 203.773 414.408 198.51 413.258 195.88 412.656 190.644 411.407 188.11 399.339 186.976 392.57 184.521 379.784" fill="#000000" fill-opacity="1" stroke="none"/>
 <path id="path-57" d="M231.958 414.793 C232.836 413.312 232.976 410.873 232.37 407.484 231.999 405.417 231.414 403.605 230.639 402.064 229.152 399.105 227.132 397.492 224.544 397.165 221.942 396.837 220.415 398.061 219.976 400.86 219.74 402.356 219.842 404.316 220.274 406.722 220.623 408.664 221.175 410.342 221.931 411.777 223.37 414.508 225.383 416.098 227.987 416.542 229.751 416.842 231.079 416.271 231.958 414.793 M214.271 392.921 C215.746 393.121 216.483 393.22 217.954 393.413 218.186 394.728 218.302 395.389 218.539 396.717 219.091 395.682 219.78 394.918 220.54 394.406 221.639 393.668 223.052 393.354 224.76 393.557 227.286 393.857 229.608 395.176 231.758 397.597 233.907 400.017 235.371 403.357 236.128 407.574 237.152 413.274 236.562 417.097 234.394 419.004 233.019 420.213 231.25 420.598 229.095 420.214 227.402 419.913 225.912 419.243 224.628 418.249 223.886 417.673 222.995 416.761 221.974 415.502 222.84 420.481 223.251 422.914 223.93 427.38 222.432 427.068 221.684 426.907 220.187 426.585 218.247 414.462 216.698 406.669 214.271 392.921" fill="#000000" fill-opacity="1" stroke="none"/>
 <path id="path-58" d="M184.285 455.78 C184.716 452.72 186.257 453.007 190.285 447.663 183.617 445.335 180.242 444.107 173.388 441.504 172.705 440.317 172.365 439.681 171.688 438.288 180.935 441.657 185.454 443.217 194.305 446.133 194.71 447.509 194.921 448.147 195.352 449.349 191.002 454.8 189.318 454.683 188.341 457.868 194.398 461.045 197.444 462.55 203.67 465.367 204.257 466.425 204.553 466.977 205.157 468.167 197.446 464.496 193.738 462.497 186.365 458.237 185.512 457.187 185.097 456.703 184.285 455.78" fill="#000000" fill-opacity="1" stroke="none"/>
 <path id="path-59" d="M210.588 470.663 C208.966 469.943 208.164 469.578 206.565 468.829 207.514 465.311 208.333 464.415 210.296 461.6 204.87 456.37 202.197 453.953 196.669 446.91 198.667 447.56 199.661 447.877 201.638 448.508 205.71 453.981 207.725 456.084 211.821 460.271 213.276 457.935 214.096 456.652 216.144 452.979 217.973 453.524 218.882 453.791 220.694 454.319 217.894 458.968 216.825 460.388 214.909 463.186 220.525 468.699 223.434 471.149 228.878 477.811 227.073 477.2 226.181 476.891 224.413 476.247 220.158 470.931 217.916 468.82 213.493 464.459 212.072 466.748 211.454 467.706 210.588 470.663" fill="#000000" fill-opacity="1" stroke="none"/>
 <path id="path-60" d="M229.666 475.568 C233.786 470.353 235.723 469.15 240.536 462.926 234.307 461.313 231.169 460.458 224.822 458.64 224.545 457.389 224.417 456.736 224.198 455.336 232.532 457.728 236.611 458.833 244.6 460.928 244.833 462.246 244.971 462.87 245.281 464.069 240.595 470.254 238.69 471.572 234.333 476.87 241.234 478.932 244.793 479.858 252.243 481.48 252.674 482.637 252.882 483.236 253.265 484.497 243.655 482.441 239.174 481.208 230.599 478.388 230.235 477.205 230.047 476.648 229.666 475.568" fill="#000000" fill-opacity="1" stroke="none"/>
 <path id="path-61" d="M247.894 461.784 C249.199 462.121 249.85 462.289 251.147 462.62 253.486 473.726 257.382 475.479 260.888 486 259.338 485.72 258.571 485.574 257.05 485.274 253.71 474.708 250.04 473.012 247.894 461.784" fill="#000000" fill-opacity="1" stroke="none"/>
 <path id="path-62" d="M408.402 128.331 C418.575 119.678 428.826 111.11 439.359 102.896 430.81 103.466 426.699 103.83 419.312 104.714 419.884 103.391 420.167 102.753 420.727 101.549 430.364 100.385 435.795 99.933 446.928 99.285 446.566 100.477 446.387 101.109 446.027 102.419 435.403 110.756 424.923 119.271 414.26 127.559 423.098 126.797 428.487 126.534 439.88 126.201 439.46 127.613 439.247 128.3 438.81 129.609 423.958 130.007 417.012 130.363 407.062 131.491 407.592 130.273 407.86 129.637 408.402 128.331" fill="#000000" fill-opacity="1" stroke="none"/>
 <path id="path-63" d="M446.497 123.005 C448.348 121.04 451.422 119.151 455.669 117.425 458.202 116.399 459.453 115.887 461.912 114.864 464.665 113.713 466.549 112.741 467.628 111.945 469.321 110.696 470.14 109.28 470.157 107.733 470.176 105.925 469.47 104.555 468.113 103.583 466.754 102.608 464.968 102.171 462.69 102.232 459.318 102.323 456.882 103.303 455.252 105.276 454.378 106.333 453.733 107.805 453.334 109.733 451.221 109.799 450.172 109.836 448.092 109.917 448.721 107.225 449.824 105.095 451.341 103.488 454.025 100.649 457.841 99.297 463.05 99.141 467.38 99.011 470.494 99.727 472.569 101.428 474.642 103.129 475.83 105.173 475.94 107.531 476.054 110.017 474.96 112.228 472.48 114.061 471.042 115.127 468.417 116.424 464.47 117.951 462.677 118.64 461.77 118.984 459.936 119.671 457.752 120.484 455.988 121.257 454.668 121.975 452.317 123.253 450.668 124.635 449.772 126.076 460.02 125.904 465.454 125.892 476.098 125.987 476.057 127.388 476.026 128.069 475.937 129.367 462.208 129.221 455.118 129.239 442.3 129.524 443.239 127.208 444.646 124.971 446.497 123.005" fill="#000000" fill-opacity="1" stroke="none"/>
 <path id="path-64" d="M501.155 114.506 C502.608 113.482 502.922 111.61 502.18 108.994 501.513 106.643 500.303 104.95 498.599 103.839 496.896 102.726 495 102.175 492.819 102.138 490.478 102.098 488.719 102.662 487.506 103.87 486.292 105.079 485.792 106.751 486.099 108.933 486.39 110.995 487.286 112.686 488.838 113.953 490.39 115.22 492.719 115.889 495.714 115.961 497.866 116.011 499.704 115.527 501.155 114.506 M488.112 122.387 C488.49 124.562 489.864 126.005 492.3 126.847 493.556 127.283 494.96 127.523 496.482 127.565 499.327 127.643 501.633 127.005 503.276 125.545 504.915 124.087 504.955 115.912 504.955 115.912 504.879 115.898 502.962 118.294 501.309 118.822 499.658 119.349 497.754 119.582 495.64 119.53 491.347 119.423 487.723 118.403 485.02 116.428 482.318 114.453 480.914 111.923 480.647 108.941 480.391 106.075 481.316 103.673 483.22 101.725 485.122 99.777 488.014 98.915 491.991 98.977 497.355 99.059 501.408 100.815 504.78 104.87 506.637 107.105 508.211 110.022 509.329 113.59 510.592 117.616 510.889 121.184 510.029 124.077 508.599 128.89 504.036 130.714 496.995 130.514 492.271 130.38 488.554 129.633 486.032 128.129 483.514 126.626 482.266 124.707 482.152 122.295 484.547 122.326 485.742 122.343 488.112 122.387" fill="#000000" fill-opacity="1" stroke="none"/>
 <path id="path-65" d="M509.704 98.902 C511.339 98.984 512.148 99.026 513.739 99.12 516.451 105.3 518.292 109.657 521.175 117.556 524.396 113.628 525.598 111.594 527.735 107.932 529.714 108.104 530.668 108.196 532.496 108.386 530.855 111.553 529.956 113.292 527.572 116.705 534.187 123.27 537.57 126.757 542.4 132.364 540.614 132.168 539.65 132.072 537.595 131.888 533.384 127.374 530.764 124.697 525.528 119.438 524.551 120.658 524.027 121.265 522.899 122.461 524.12 126.09 524.668 127.869 525.459 130.997 523.557 130.881 522.575 130.824 520.567 130.716 517.926 119.297 514.042 109.534 509.704 98.902" fill="#000000" fill-opacity="1" stroke="none"/>
 <path id="path-66" d="M414.359 212.125 C416.142 209.646 417.516 206.208 418.48 201.786 419.338 197.854 419.426 194.578 418.765 192.101 418.103 189.624 416.603 188.51 414.376 188.632 412.434 188.738 410.575 189.817 408.699 191.953 406.823 194.088 405.271 197.619 404.066 202.453 403.194 205.946 402.81 208.684 402.909 210.681 403.093 214.446 404.787 215.986 408.014 215.856 410.442 215.757 412.575 214.605 414.359 212.125 M407.418 174.973 C408.773 174.846 409.475 174.784 410.929 174.66 410.265 178.654 409.435 181.969 407.69 188.937 408.949 187.204 410.261 185.909 411.677 185.001 413.093 184.092 414.538 183.606 416.049 183.517 419.193 183.332 421.634 184.525 423.158 187.43 424.682 190.336 424.842 195.04 423.55 201.297 422.326 207.228 420.232 211.909 417.339 215.264 414.448 218.617 411.139 219.998 407.49 220.142 405.446 220.224 403.881 219.822 402.769 218.842 402.107 218.26 401.483 217.292 400.953 215.829 400.617 217.436 400.465 218.201 400.211 219.616 398.738 219.69 398.027 219.73 396.662 219.81 400.079 204.818 404.134 189.993 407.418 174.973" fill="#000000" fill-opacity="1" stroke="none"/>
 <path id="path-67" d="M437.824 173.014 C439.312 185.408 439.176 197.926 439.763 210.379 444.922 197.682 449.739 184.83 455.241 172.276 457.781 172.187 459.064 172.146 461.64 172.067 464.885 184.57 466.393 197.435 468.627 210.138 472.548 197.33 476.079 184.408 480.093 171.63 482.743 171.586 484.068 171.567 486.704 171.536 481.551 187.064 477.759 202.987 471.619 218.184 468.739 218.192 467.297 218.199 464.439 218.214 461.489 205.054 459.999 191.664 457.879 178.36 452.721 191.808 447.747 205.335 441.731 218.431 439.031 218.471 437.696 218.491 435.073 218.538 433.775 203.47 433.68 188.344 431.992 173.318 434.28 173.191 435.45 173.131 437.824 173.014" fill="#000000" fill-opacity="1" stroke="none"/>
 <path id="path-68" d="M492.799 171.484 C505.007 171.408 511.052 171.448 521.886 171.744 522.055 173.316 522.15 174.226 522.346 176.21 513.494 175.958 508.674 175.896 498.843 175.873 498.944 180.74 498.978 183.868 498.998 190.172 508.046 190.237 512.492 190.305 520.815 190.513 520.998 192.993 521.091 194.262 521.26 196.786 512.762 196.581 508.222 196.512 499 196.437 498.979 206.064 498.919 211.328 498.677 218.242 495.979 218.224 494.621 218.216 491.894 218.204 492.583 202.645 492.933 187.057 492.799 171.484" fill="#000000" fill-opacity="1" stroke="none"/>
 <path id="path-69" d="M528.583 214.715 C535.743 205.838 538.492 199.343 542.784 189.047 537.262 188.719 534.214 188.584 527.778 188.368 527.551 186.127 527.442 185.027 527.219 182.932 536.126 183.239 540.259 183.449 547.25 184.004 547.6 185.908 547.778 186.9 548.142 188.924 544.606 199.024 542.272 205.444 535.752 214.334 543.168 214.542 546.639 214.663 552.763 214.947 553.003 216.835 553.106 217.723 553.259 219.324 544.711 218.987 539.632 218.848 528.755 218.632 528.707 217.183 528.67 216.388 528.583 214.715" fill="#000000" fill-opacity="1" stroke="none"/>
 <path id="path-70" d="M395.538 329.983 C396.948 331.192 398.616 331.875 400.537 331.998 402.876 332.147 405.14 331.716 407.317 330.708 410.975 329.016 412.813 325.962 412.798 321.62 412.79 319.344 412.789 318.204 412.781 315.928 411.977 316.468 410.941 316.912 409.673 317.255 408.408 317.598 407.157 317.828 405.934 317.955 404.334 318.136 403.534 318.226 401.93 318.401 399.528 318.672 397.717 319.146 396.504 319.804 394.454 320.918 393.418 322.729 393.421 325.279 393.422 327.21 394.129 328.772 395.538 329.983 M409.468 311.833 C410.982 311.631 411.99 310.951 412.504 309.813 412.787 309.183 412.937 308.271 412.933 307.086 412.926 304.667 412.121 302.914 410.522 301.862 408.926 300.811 406.637 300.33 403.654 300.406 400.208 300.495 397.758 301.542 396.312 303.472 395.508 304.546 394.977 306.122 394.732 308.202 392.249 308.214 391.006 308.222 388.513 308.232 388.636 303.379 390.224 299.966 393.257 297.923 396.289 295.882 399.801 294.729 403.785 294.563 408.406 294.37 412.156 295.158 415.026 296.971 417.877 298.774 419.312 301.742 419.328 305.783 419.366 315.625 419.385 320.544 419.424 330.387 419.428 331.13 419.568 331.732 419.85 332.196 420.133 332.663 420.728 332.915 421.629 332.956 421.921 332.97 422.25 332.964 422.616 332.942 422.981 332.916 423.37 332.878 423.785 332.815 423.793 334.955 423.798 336.022 423.807 338.162 422.785 338.428 422.006 338.586 421.47 338.634 420.933 338.683 420.202 338.682 419.274 338.626 417.004 338.49 415.342 337.508 414.316 335.715 413.772 334.767 413.164 331.754 413.164 331.754 413.005 331.714 409.894 335.094 407.369 336.291 404.844 337.49 402.054 337.942 398.994 337.69 395.317 337.388 392.301 335.984 389.956 333.578 387.61 331.17 386.436 328.354 386.436 325.063 386.436 321.454 387.592 318.703 389.889 316.75 392.186 314.797 395.198 313.579 398.913 313.138 403.148 312.635 405.257 312.373 409.468 311.833" fill="#000000" fill-opacity="1" stroke="none"/>
 <path id="path-71" d="M466.174 279.083 C471.367 282.261 474.594 287.941 475.806 296.053 472.963 296.056 471.542 296.06 468.699 296.073 467.824 291.545 466.05 288.259 463.376 286.225 460.702 284.191 457.338 283.215 453.284 283.305 448.474 283.416 444.43 285.673 441.156 289.977 437.883 294.283 436.259 300.549 436.302 308.851 436.339 316.028 437.735 321.879 440.486 326.464 443.236 331.049 447.695 333.467 453.84 333.576 458.543 333.66 462.42 332.081 465.478 328.852 468.536 325.623 470.076 320.363 470.104 313.096 463.466 313.099 460.147 313.099 453.495 313.088 453.479 310.323 453.468 308.94 453.451 306.175 462.778 306.136 467.428 306.123 476.732 306.113 476.815 319.403 476.859 326.048 476.942 339.339 475.095 339.343 474.171 339.344 472.324 339.339 471.611 336.141 471.256 334.541 470.543 331.345 468.174 334.465 466.05 336.611 464.227 337.805 461.141 339.825 457.199 340.821 452.403 340.7 446.207 340.544 440.54 337.972 436.34 333.212 431.399 327.609 428.938 319.333 428.891 309.315 428.844 299.325 431.207 291.337 435.93 285.193 440.428 279.34 446.256 276.171 453.422 275.968 458.332 275.828 462.584 276.887 466.174 279.083" fill="#000000" fill-opacity="1" stroke="none"/>
 <path id="path-72" d="M489.039 277.34 C503.752 277.563 511.116 277.836 525.959 278.737 525.972 281.64 525.978 283.092 525.991 285.993 514.052 285.436 508.117 285.244 496.268 285.028 496.312 292.509 496.333 296.254 496.377 303.737 506.79 303.778 512 303.812 522.468 303.926 522.481 306.768 522.487 308.185 522.5 311.026 512.037 311.045 506.831 311.056 496.422 311.073 496.487 322.278 496.52 327.885 496.585 339.09 493.716 339.157 492.283 339.185 489.413 339.229 489.288 318.599 489.161 297.97 489.039 277.34" fill="#000000" fill-opacity="1" stroke="none"/>
 <path id="path-73" d="M530.141 332.046 C537.551 321.763 545.215 311.66 553.271 301.875 544.611 301.635 540.306 301.535 531.725 301.37 531.716 298.806 531.711 297.523 531.702 294.96 543.814 295.363 549.898 295.62 562.185 296.267 L562.185 301.63 C552.851 312.454 548.24 318.426 539.078 330.852 548.555 330.364 553.313 330.076 562.888 329.412 L562.888 335.271 C549.705 336.474 543.174 336.965 530.162 337.724 530.152 335.453 530.15 334.316 530.141 332.046" fill="#000000" fill-opacity="1" stroke="none"/>
 <path id="path-74" d="M424.228 411.506 C426.808 413.377 428.644 416.493 429.75 420.894 427.631 420.79 426.576 420.734 424.483 420.619 423.842 418.592 422.846 416.886 421.491 415.505 420.136 414.122 418.189 413.368 415.697 413.223 412.291 413.024 410.207 414.537 409.423 417.805 408.914 419.924 408.981 422.599 409.614 425.834 410.25 429.09 411.435 431.886 413.142 434.216 414.849 436.545 417.05 437.824 419.795 438.035 421.902 438.196 423.459 437.622 424.47 436.317 425.479 435.016 426.039 433.164 426.13 430.774 428.172 430.898 429.198 430.96 431.259 431.07 431.322 435.393 430.355 438.488 428.402 440.337 426.447 442.186 423.745 442.976 420.268 442.696 416.363 442.38 412.987 440.558 410.055 437.257 407.122 433.957 405.166 429.974 404.227 425.336 403.075 419.652 403.484 415.381 405.512 412.453 407.539 409.528 410.663 408.199 414.892 408.425 418.502 408.621 421.646 409.635 424.228 411.506" fill="#000000" fill-opacity="1" stroke="none"/>
 <path id="path-75" d="M455.344 410.878 C457.94 410.938 459.243 410.966 461.854 411.016 461.108 413.082 459.444 417.816 457.214 425.263 455.536 430.86 454.25 435.444 453.226 438.956 450.814 447.22 449.222 452.118 448.198 453.856 447.172 455.595 445.252 456.392 442.411 456.239 441.719 456.203 441.182 456.143 440.803 456.066 440.427 455.987 439.952 455.847 439.387 455.658 439.151 453.724 439.028 452.752 438.779 450.792 439.683 451.098 440.331 451.288 440.728 451.368 441.123 451.45 441.471 451.5 441.768 451.516 442.694 451.563 443.358 451.428 443.758 451.123 444.159 450.815 444.499 450.419 444.734 449.956 444.811 449.803 445.06 448.996 445.491 447.535 445.923 446.072 446.242 444.98 446.436 444.263 441.387 432.727 435.994 421.344 430.364 410.08 432.916 410.186 434.202 410.238 436.79 410.331 441.643 420.968 444.1 426.528 448.515 437.34 450.916 426.763 452.219 421.359 455.344 410.878" fill="#000000" fill-opacity="1" stroke="none"/>
 <path id="path-76" d="M487.081 438.677 C490.771 438.644 493.479 437.534 495.224 435.376 496.328 434.014 496.959 432.37 497.109 430.456 497.359 427.228 496.023 425.045 493.067 423.888 491.495 423.272 489.373 422.964 486.707 422.964 481.657 422.965 479.122 422.953 474.063 422.904 474.102 429.229 474.127 432.406 474.113 438.706 479.298 438.732 481.893 438.725 487.081 438.677 M485.827 418.057 C488.559 418.064 490.695 417.705 492.25 416.994 494.695 415.876 496.023 413.873 496.211 410.992 496.401 408.086 495.235 406.134 492.666 405.132 491.219 404.567 489.016 404.285 486.078 404.273 481.258 404.256 478.838 404.237 474.006 404.188 473.987 409.657 474.005 412.426 474.035 417.981 478.753 418.032 481.114 418.047 485.827 418.057 M467.383 399.153 C476.049 399.256 480.419 399.285 489.057 399.298 494.944 399.308 498.994 400.829 501.158 403.91 502.434 405.727 502.953 407.841 502.752 410.234 502.518 413.034 501.46 415.339 499.655 417.146 498.708 418.093 495.708 419.773 495.708 419.773 495.718 419.968 499.752 421.593 500.831 422.669 502.746 424.576 503.519 427.233 503.187 430.625 502.907 433.481 501.73 436.078 499.721 438.422 496.718 441.929 492.414 443.752 486.703 443.818 479.365 443.906 475.69 443.91 468.375 443.837 468.049 428.941 467.659 414.049 467.383 399.153" fill="#000000" fill-opacity="1" stroke="none"/>
 <path id="path-77" d="M511.628 411.178 C513.903 411.15 515.035 411.133 517.286 411.094 517.066 412.924 516.957 413.836 516.735 415.661 518.262 414.053 519.623 412.873 520.799 412.137 522.807 410.878 525.004 410.228 527.335 410.173 529.971 410.112 531.989 410.685 533.367 411.892 534.146 412.574 535.286 414.966 535.287 414.966 535.59 415.02 538.351 411.92 540.082 411.041 541.811 410.167 543.659 409.688 545.613 409.612 549.785 409.452 552.267 410.873 553.214 413.845 553.723 415.444 553.746 417.621 553.266 420.372 551.819 428.653 551.054 432.736 549.245 440.908 547.147 441.077 546.094 441.16 543.981 441.317 545.861 432.741 546.653 428.449 548.161 419.754 548.524 417.669 548.261 416.257 547.371 415.518 546.485 414.782 545.296 414.444 543.803 414.505 541.75 414.59 539.847 415.36 538.111 416.817 536.378 418.276 535.247 420.641 534.703 423.901 533.477 431.25 532.835 434.9 531.366 442.173 529.266 442.302 528.212 442.365 526.101 442.482 527.667 434.281 528.334 430.157 529.621 421.862 529.955 419.708 529.935 418.126 529.552 417.166 528.969 415.71 527.504 414.996 525.206 415.053 523.113 415.105 521.083 415.941 519.156 417.556 517.231 419.168 516.024 422.052 515.491 426.181 514.618 432.982 514.159 436.373 513.114 443.11 511.018 443.198 509.973 443.237 507.87 443.313 509.632 430.558 510.249 424.081 511.628 411.178" fill="#000000" fill-opacity="1" stroke="none"/>
 <path id="path-78" d="M438.253 498.057 C441.221 499.267 443.386 501.141 444.8 503.664 442.433 503.56 441.256 503.504 438.918 503.383 438.112 502.205 436.928 501.196 435.354 500.344 433.781 499.492 431.572 498.973 428.785 498.789 424.983 498.537 422.73 499.357 422.007 501.236 421.537 502.453 421.73 503.997 422.619 505.901 423.512 507.815 425.032 509.505 427.12 510.968 429.208 512.429 431.78 513.301 434.827 513.5 437.165 513.652 438.818 513.32 439.83 512.539 440.842 511.756 441.322 510.647 441.277 509.252 443.542 509.363 444.678 509.419 446.958 509.512 447.266 512.039 446.434 513.973 444.461 515.135 442.488 516.296 439.645 516.789 435.805 516.517 431.492 516.211 427.519 514.877 423.931 512.728 420.341 510.577 417.848 508.137 416.563 505.396 414.985 502.033 415.308 499.555 417.431 497.881 419.553 496.208 422.945 495.511 427.672 495.828 431.709 496.099 435.285 496.847 438.253 498.057" fill="#000000" fill-opacity="1" stroke="none"/>
 <path id="path-79" d="M449.022 497.54 C451.459 497.639 452.691 497.683 455.161 497.764 455.421 498.875 455.551 499.415 455.827 500.486 457.337 499.438 459.098 498.679 461.063 498.238 463.03 497.796 465.31 497.6 467.874 497.646 473.495 497.744 477.426 498.744 479.498 500.562 480.637 501.56 481.253 502.95 481.383 504.751 481.714 509.336 481.949 511.455 482.127 517.239 479.862 517.275 478.73 517.287 476.467 517.295 475.945 511.64 475.578 509.518 474.978 504.971 474.833 503.871 474.381 502.984 473.599 502.299 472.303 501.163 470.113 500.556 467.081 500.506 465.541 500.479 464.287 500.536 463.343 500.662 461.634 500.887 460.194 501.359 459.07 502.084 458.165 502.67 457.654 503.278 457.519 503.916 457.383 504.558 457.49 505.479 457.835 506.691 458.943 510.579 459.541 512.495 460.727 517.119 458.507 517.06 457.398 517.024 455.178 516.944 452.458 508.175 451.159 505.404 449.022 497.54" fill="#000000" fill-opacity="1" stroke="none"/>
 <path id="path-80" d="M491.676 490.396 C494.537 490.373 495.973 490.36 498.833 490.312 496.993 503.133 497.629 504.302 496.114 516.813 493.874 516.915 492.758 516.959 490.524 517.033 491.281 504.576 490.468 503.204 491.676 490.396" fill="#000000" fill-opacity="1" stroke="none"/>
 <path id="path-81" d="M511.293 497.62 C514.265 503.454 515.866 505.226 517.541 511.45 523.488 504.56 526.262 502.533 532.802 496.362 535.659 496.141 537.082 496.018 539.899 495.76 531.113 503.381 527.453 505.428 519.161 515.181 516.743 515.416 515.535 515.525 513.126 515.725 510.864 506.91 508.281 505.173 503.482 497.894 506.61 497.804 508.177 497.748 511.293 497.62" fill="#000000" fill-opacity="1" stroke="none"/>
 <path id="path-82" d="M712.066 140.613 C714.078 141.922 715.749 143.688 716.979 145.814 715.458 145.443 714.698 145.261 713.19 144.909 712.559 143.907 711.696 142.981 710.606 142.14 709.52 141.297 708.084 140.651 706.314 140.249 703.9 139.699 702.556 140.216 702.193 141.672 701.957 142.616 702.14 143.861 702.733 145.415 703.33 146.977 704.293 148.395 705.652 149.679 707.01 150.963 708.721 151.818 710.81 152.236 712.41 152.556 713.562 152.468 714.251 151.981 714.939 151.496 715.239 150.714 715.147 149.654 716.675 149.996 717.443 150.172 718.99 150.533 719.394 152.472 718.901 153.804 717.527 154.455 716.151 155.107 714.099 155.181 711.425 154.656 708.421 154.065 705.787 152.791 703.49 150.891 701.196 148.991 699.654 146.937 698.794 144.677 697.74 141.907 697.796 139.873 699.018 138.616 700.24 137.359 702.282 137.009 705.244 137.705 707.773 138.301 710.056 139.304 712.066 140.613" fill="#000000" fill-opacity="1" stroke="none"/>
 <path id="path-83" d="M732.822 145.658 C734.536 146.186 735.395 146.457 737.108 147.002 737.173 147.856 737.32 149.721 737.188 152.522 737.089 154.632 736.877 156.426 736.675 157.917 736.198 161.428 735.709 164.26 735.167 165.192 734.623 166.124 733.12 166.334 730.684 165.76 730.091 165.618 729.63 165.493 729.296 165.378 728.962 165.261 728.539 165.094 728.032 164.877 727.532 163.529 727.293 162.893 726.831 161.673 727.616 162.001 728.176 162.228 728.514 162.34 728.851 162.454 729.146 162.538 729.396 162.598 730.17 162.781 730.702 162.814 730.987 162.696 731.271 162.58 731.49 162.4 731.614 162.17 731.654 162.096 731.738 161.657 731.87 160.917 732.003 160.177 732.095 159.657 732.146 159.316 725.43 151.15 722.651 148.664 716.06 140.853 717.802 141.313 718.672 141.549 720.422 142.033 725.523 148.134 727.78 150.388 732.774 156.27 733.068 151.742 733.304 150.164 732.822 145.658" fill="#000000" fill-opacity="1" stroke="none"/>
 <path id="path-84" d="M757.402 159.621 C755.097 156.173 753.942 154.653 751.208 150.808 750.076 153.248 749.174 154.177 747.14 156.486 751.27 157.713 753.332 158.344 757.402 159.621 M761.92 166.897 C760.674 164.666 760.073 163.676 758.848 161.756 753.213 160.038 750.342 159.189 744.606 157.562 744.066 156.57 743.796 156.089 743.248 155.128 746.325 151.877 747.665 150.742 748.745 146.636 749.994 147.125 750.62 147.37 751.865 147.87 756.368 154.141 758.041 156.04 761.441 160.902 763.294 161.495 764.216 161.794 766.044 162.393 766.638 163.2 766.93 163.608 767.517 164.446 765.67 163.864 764.742 163.57 762.869 162.989 764.133 164.889 764.752 165.872 766.034 168.086 764.398 167.61 763.574 167.372 761.92 166.897" fill="#000000" fill-opacity="1" stroke="none"/>
 <path id="path-85" d="M779.695 164.496 C777.922 163.347 776.181 162.408 774.478 161.738 771.93 160.735 770.81 160.798 771.069 161.888 771.208 162.474 771.789 163.39 772.798 164.667 773.985 166.167 775.385 167.544 777.031 168.721 778.679 169.901 780.38 170.78 782.088 171.313 784.763 172.148 786.01 171.884 785.882 170.812 785.808 170.203 785.315 169.404 784.412 168.412 783.055 166.919 781.47 165.647 779.695 164.496 M777.11 162.079 C778.046 162.634 779.121 163.32 780.31 164.11 779.71 163.496 779.402 163.184 778.778 162.543 780.083 163.099 780.732 163.378 782.019 163.938 786.539 168.394 788.316 169.77 792.204 174.969 793.562 176.787 794.276 178.358 794.314 179.467 794.383 181.509 792.444 182.385 788.091 181.207 785.67 180.552 783.279 179.425 781.019 177.931 778.755 176.431 776.955 174.602 775.67 172.689 777.29 173.157 778.087 173.388 779.671 173.848 780.335 174.701 781.086 175.464 781.908 176.085 783.186 177.051 784.774 177.813 786.596 178.323 789.478 179.13 790.754 178.692 790.608 177.36 790.522 176.577 788.207 173.083 788.207 173.083 788.147 173.094 787.586 173.889 786.831 173.963 786.074 174.036 784.84 173.828 783.103 173.305 780.684 172.58 778.098 171.284 775.429 169.519 772.759 167.754 770.545 165.565 768.713 163.159 766.985 160.888 766.499 159.482 767.231 158.883 767.966 158.283 769.526 158.479 772.015 159.5 773.702 160.192 775.402 161.067 777.11 162.079" fill="#000000" fill-opacity="1" stroke="none"/>
 <path id="path-86" d="M728.097 225.077 C729.404 227.068 731.191 228.181 733.471 228.455 735.241 228.668 736.577 227.997 737.463 226.453 738.348 224.911 738.548 222.571 738.047 219.422 737.541 216.243 736.568 213.81 735.137 212.092 733.711 210.376 732.129 209.367 730.404 209.079 728.48 208.757 727.057 209.322 726.129 210.794 725.203 212.264 724.996 214.64 725.497 217.907 725.924 220.687 726.791 223.087 728.097 225.077 M733.673 207.263 C734.433 207.847 735.343 208.79 736.402 210.099 735.592 205.087 735.187 202.608 734.409 197.815 735.896 198.104 736.64 198.247 738.135 198.546 740.285 211.573 741.492 218.728 743.596 232.435 742.192 232.261 741.489 232.176 740.092 232.008 739.879 230.613 739.775 229.912 739.557 228.512 738.895 229.947 738.001 230.94 736.88 231.487 735.76 232.033 734.411 232.221 732.84 232.047 730.305 231.764 727.951 230.344 725.756 227.713 723.56 225.083 722.164 221.701 721.547 217.62 720.968 213.802 721.293 210.617 722.537 208.146 723.781 205.673 725.959 204.743 729.096 205.288 730.833 205.589 732.361 206.254 733.673 207.263" fill="#000000" fill-opacity="1" stroke="none"/>
 <path id="path-87" d="M766.19 205.521 C769.665 207.889 772.158 211.189 773.603 215.369 771.858 214.999 770.985 214.815 769.238 214.451 768.309 212.062 766.931 210.159 765.107 208.751 763.285 207.342 761.133 206.361 758.654 205.826 755.713 205.19 753.437 205.773 751.821 207.619 750.203 209.467 749.782 212.675 750.539 217.234 751.193 221.174 752.543 224.541 754.59 227.261 756.637 229.983 759.518 231.583 763.262 232.122 766.127 232.534 768.37 232.031 769.983 230.659 771.595 229.287 772.121 226.797 771.536 223.157 767.463 222.413 765.426 222.047 761.361 221.333 761.117 219.886 760.995 219.163 760.75 217.721 766.453 218.785 769.317 219.337 775.027 220.459 776.193 227.03 776.747 230.283 777.807 237.021 776.678 236.859 776.117 236.778 774.989 236.618 774.309 234.926 773.962 234.083 773.275 232.397 772.069 233.761 770.941 234.689 769.922 235.159 768.202 235.951 765.875 236.187 762.959 235.798 759.193 235.294 755.614 233.615 752.666 230.678 749.217 227.241 747.037 222.353 746.111 216.715 745.19 211.095 745.893 206.951 748.218 204.328 750.431 201.828 753.714 201.084 758.089 202.05 761.087 202.714 763.789 203.885 766.19 205.521" fill="#000000" fill-opacity="1" stroke="none"/>
 <path id="path-88" d="M782.168 208.398 C787.927 219.825 790.716 224.905 796.088 235.434 798.041 226.106 799 222.244 800.406 212.921 802.317 213.408 803.27 213.652 805.164 214.141 803.208 224.884 801.825 229.009 799.082 240.141 797.246 239.866 796.324 239.73 794.478 239.456 787.869 226.761 784.424 220.814 777.328 207.241 779.268 207.701 780.235 207.933 782.168 208.398" fill="#000000" fill-opacity="1" stroke="none"/>
 <path id="path-89" d="M822.703 225.719 C824.333 226.116 825.144 226.313 826.752 226.709 826.535 227.785 826.06 230.186 825.176 233.969 824.512 236.815 823.892 239.224 823.365 241.152 822.127 245.691 821.091 248.903 820.383 250.009 819.674 251.115 818.22 251.56 816.006 251.276 815.466 251.207 815.042 251.132 814.743 251.052 814.446 250.972 814.078 250.848 813.634 250.681 813.428 249.295 813.323 248.615 813.115 247.284 813.81 247.551 814.311 247.725 814.616 247.805 814.919 247.887 815.187 247.942 815.412 247.972 816.122 248.068 816.622 248.028 816.92 247.852 817.219 247.676 817.467 247.44 817.63 247.156 817.683 247.063 817.85 246.551 818.128 245.656 818.407 244.759 818.604 244.109 818.723 243.687 813.935 234.835 811.503 230.96 806.362 221.806 808.106 222.216 808.974 222.422 810.7 222.832 814.535 229.919 816.368 233.049 819.959 239.751 821.208 233.857 821.8 231.354 822.703 225.719" fill="#000000" fill-opacity="1" stroke="none"/>
 <path id="path-90" d="M743.025 331.637 C743.787 332.551 744.697 332.951 745.763 332.925 747.058 332.891 748.33 332.435 749.586 331.499 751.69 329.933 752.85 327.295 753.007 323.025 753.091 320.785 753.134 319.609 753.218 317.207 752.731 317.791 752.119 318.278 751.375 318.667 750.631 319.057 749.906 319.333 749.198 319.499 748.273 319.734 747.809 319.851 746.883 320.085 745.497 320.445 744.446 321.011 743.741 321.765 742.551 323.033 741.941 325.053 741.909 327.525 741.886 329.395 742.262 330.722 743.025 331.637 M751.45 312.821 C752.338 312.606 752.945 311.866 753.291 310.627 753.482 309.947 753.609 308.958 753.653 307.671 753.742 305.045 753.337 303.146 752.429 301.941 751.521 300.735 750.174 300.091 748.389 300.003 746.326 299.903 744.83 300.899 743.929 303.058 743.43 304.255 743.086 306.074 742.909 308.519 741.442 308.478 740.708 308.457 739.231 308.413 739.325 302.537 740.297 298.622 742.169 296.606 744.042 294.59 746.218 293.747 748.635 293.898 751.438 294.074 753.663 295.121 755.294 297.114 756.919 299.103 757.623 302.171 757.451 306.437 757.034 316.821 756.818 322.751 756.423 330.519 756.393 331.109 756.449 331.554 756.59 331.883 756.729 332.21 757.053 332.354 757.561 332.33 757.726 332.322 757.91 332.299 758.117 332.26 758.325 332.221 758.551 332.167 758.787 332.099 758.698 333.645 758.653 334.347 758.565 335.562 757.979 335.775 757.534 335.912 757.23 335.973 756.927 336.033 756.515 336.073 755.997 336.098 754.731 336.159 753.842 335.754 753.331 334.666 753.062 334.091 752.833 331.955 752.833 331.955 752.77 331.942 750.881 334.562 749.442 335.451 748.002 336.339 746.457 336.722 744.789 336.757 742.785 336.797 741.175 336.27 739.911 334.738 738.649 333.209 738 330.973 738 327.702 738 324.122 738.649 320.867 739.987 318.565 741.325 316.266 743.097 314.814 745.266 314.291 747.741 313.702 748.979 313.405 751.45 312.821" fill="#000000" fill-opacity="1" stroke="none"/>
 <path id="path-91" d="M785.897 286.619 C788.674 288.81 790.206 292.645 790.458 299.284 788.857 299.186 788.053 299.136 786.442 299.036 786.196 295.241 785.368 292.703 783.957 291.078 782.545 289.454 780.685 288.592 778.356 288.364 775.592 288.09 773.133 289.203 771.003 292.506 768.869 295.813 767.589 301.661 767.163 309.884 766.796 316.995 767.284 322.545 768.615 326.216 769.944 329.884 772.371 331.142 775.881 330.87 778.57 330.662 780.869 329.452 782.791 326.921 784.707 324.392 785.868 320.177 786.289 313.84 782.516 313.897 780.621 313.924 776.813 313.96 776.961 311.411 777.036 310.11 777.185 307.541 782.529 307.65 785.177 307.698 790.436 307.781 789.756 319.22 789.377 325.934 788.845 333.042 787.785 333.148 787.253 333.203 786.193 333.307 785.928 331.628 785.804 330.638 785.557 328.462 784.042 330.737 782.724 332.122 781.62 332.916 779.752 334.257 777.437 334.969 774.7 335.196 771.158 335.488 768.033 334.681 765.904 331.63 763.356 327.978 762.366 320.482 762.849 310.273 763.331 300.093 765.125 292.536 768.201 288.382 771.13 284.427 774.688 283.573 778.801 284.006 781.621 284.305 783.979 285.104 785.897 286.619" fill="#000000" fill-opacity="1" stroke="none"/>
 <path id="path-92" d="M798.337 300.094 C798.444 298.267 798.497 297.375 798.597 295.674 801.224 295.499 803.064 295.014 804.132 294.254 805.198 293.495 806.07 291.507 806.705 288.995 807.822 289.123 808.38 289.188 809.494 289.317 808.793 303.228 808.065 317.136 807.369 331.048 805.788 331.228 804.994 331.316 803.41 331.494 803.897 322.563 804.392 313.396 805.09 300.486 802.398 300.331 801.048 300.252 798.337 300.094" fill="#000000" fill-opacity="1" stroke="none"/>
 <path id="path-93" d="M820.211 289.479 C821.616 289.639 822.316 289.718 823.721 289.875 823.62 294.487 823.49 297.661 823.224 304.018 824.135 302.479 824.937 301.459 825.629 300.887 826.816 299.904 828.263 299.494 829.977 299.603 833.048 299.799 835.1 301.32 836.091 304.226 836.631 305.811 836.844 308.007 836.737 310.82 836.459 318.156 836.289 322.018 836.261 327.691 834.779 327.86 834.032 327.944 832.541 328.116 832.588 322.507 832.756 318.618 833.041 311.215 833.125 309.058 832.987 307.466 832.625 306.458 832.045 304.843 830.852 304.002 829.068 303.939 827.585 303.888 826.213 304.548 824.948 306.008 823.681 307.474 822.949 310.387 822.775 314.546 822.496 321.17 822.356 324.507 822.248 329.319 820.781 329.491 820.048 329.575 818.576 329.747 819.055 316.322 819.735 302.904 820.211 289.479" fill="#000000" fill-opacity="1" stroke="none"/>
 <path id="path-94" d="M743.535 410.094 C745.003 408.207 746.034 405.884 746.556 403.14 747.019 400.7 746.8 398.792 745.94 397.382 745.079 395.97 743.546 395.427 741.454 395.715 739.629 395.966 737.994 396.813 736.505 398.299 735.014 399.786 734.057 402.066 733.523 405.176 733.139 407.426 733.068 409.223 733.321 410.54 733.794 413.019 735.301 414.022 738.113 413.516 740.229 413.136 742.067 411.98 743.535 410.094 M733.215 386.106 C734.539 385.952 735.23 385.866 736.655 385.691 736.162 389.678 735.843 391.902 735.136 396.482 736.099 395.282 737.191 394.338 738.439 393.623 739.686 392.91 741.025 392.46 742.461 392.27 745.455 391.871 747.896 392.451 749.578 394.07 751.262 395.691 751.799 398.368 751.048 402.191 750.336 405.817 748.652 409.032 746.171 411.818 743.688 414.603 740.778 416.331 737.634 416.92 735.875 417.251 734.542 417.083 733.574 416.426 732.998 416.034 732.442 415.34 731.906 414.324 731.679 415.536 731.563 416.142 731.335 417.338 730.046 417.554 729.423 417.652 728.222 417.839 730.571 404.932 731.933 397.047 733.215 386.106" fill="#000000" fill-opacity="1" stroke="none"/>
 <path id="path-95" d="M754.841 410.755 C753.424 409.191 753.032 406.955 753.628 404.118 755.498 403.777 756.449 403.601 758.366 403.24 758.145 405.149 758.26 406.483 758.717 407.223 759.53 408.539 761.462 408.887 764.616 408.21 767.065 407.683 769.192 406.729 770.973 405.385 772.754 404.041 773.865 402.571 774.269 400.971 774.766 399.002 774.285 397.786 772.872 397.294 771.458 396.803 769.329 396.807 766.52 397.309 766.205 397.365 765.885 397.425 765.561 397.49 765.238 397.552 764.914 397.621 764.581 397.691 764.852 396.386 764.981 395.733 765.237 394.438 765.716 394.395 766.124 394.357 766.452 394.315 766.78 394.274 767.134 394.219 767.521 394.154 769.288 393.854 770.792 393.387 772.025 392.766 774.185 391.678 775.464 390.19 775.834 388.305 776.11 386.903 775.644 385.935 774.441 385.386 773.238 384.835 771.736 384.697 769.953 384.963 766.774 385.441 764.469 386.538 762.989 388.317 762.176 389.297 761.582 390.618 761.193 392.29 759.357 392.579 758.445 392.721 756.646 392.998 757.038 390.799 757.908 388.883 759.233 387.239 761.565 384.347 765.128 382.567 770.036 381.846 773.913 381.277 776.822 381.451 778.712 382.387 780.597 383.322 781.3 384.974 780.816 387.369 780.472 389.078 779.554 390.567 778.08 391.858 777.161 392.661 774.73 393.967 774.73 393.967 774.741 394.017 778.017 394.531 778.866 395.482 779.713 396.431 779.93 397.731 779.498 399.406 778.805 402.093 776.978 404.539 774.112 406.786 771.245 409.034 767.645 410.681 763.402 411.632 759.056 412.608 756.258 412.318 754.841 410.755" fill="#000000" fill-opacity="1" stroke="none"/>
 <path id="path-96" d="M791.521 377.974 C793.615 377.657 794.655 377.495 796.701 377.182 794.215 388.434 793.749 393.55 789.572 404.825 787.565 405.306 786.55 405.546 784.502 406.031 788.559 394.589 789.105 389.242 791.521 377.974" fill="#000000" fill-opacity="1" stroke="none"/>
 <path id="path-97" d="M815.293 385.277 C814.454 384.383 813.142 384.073 811.309 384.396 808.565 384.879 806.313 386.289 804.71 388.611 803.858 389.845 803.198 391.388 802.677 393.228 802.063 395.391 802.101 396.922 802.833 397.802 803.563 398.68 804.838 398.897 806.645 398.465 809.472 397.788 811.754 396.3 813.492 394.064 814.472 392.805 815.176 391.439 815.605 389.957 816.254 387.725 816.133 386.172 815.293 385.277 M815.625 382.02 C816.218 382.3 816.778 382.785 817.291 383.428 817.507 382.503 817.615 382.036 817.829 381.093 819.131 380.876 819.761 380.769 820.97 380.568 819.455 387.289 818.933 390.18 816.098 396.903 815.11 399.249 813.766 401.288 812.24 402.952 809.408 406.035 805.829 408.259 801.418 409.472 798.965 410.147 797.089 410.221 795.812 409.688 794.536 409.153 794.262 407.84 794.938 405.795 796.688 405.353 797.548 405.135 799.237 404.703 799.034 405.559 799.098 406.173 799.444 406.51 799.982 407.035 801.22 407.039 803.093 406.536 806.052 405.743 808.362 404.305 810.093 402.293 811.114 401.105 813.213 396.644 813.213 396.644 813.186 396.628 810.952 398.701 809.701 399.44 808.452 400.177 806.934 400.781 805.108 401.239 802.565 401.875 800.556 401.692 799.062 400.657 797.572 399.625 797.361 397.34 798.314 393.869 799.212 390.596 800.873 387.84 803.368 385.652 805.861 383.467 808.517 382.151 811.228 381.7 813.063 381.396 814.536 381.504 815.625 382.02" fill="#000000" fill-opacity="1" stroke="none"/>
 <path id="path-98" d="M718.622 479.826 C720.09 478.102 721.386 476.027 722.488 473.646 723.469 471.527 723.862 469.91 723.663 468.751 723.466 467.59 722.553 467.203 720.927 467.559 719.508 467.87 718.008 468.676 716.452 469.996 714.893 471.318 713.574 473.23 712.464 475.862 711.661 477.764 711.221 479.324 711.133 480.481 710.965 482.661 711.912 483.575 714.034 483.049 715.629 482.655 717.153 481.551 718.622 479.826 M716.402 459.972 C717.714 459.693 718.362 459.558 719.64 459.283 718.161 463.02 717.368 464.836 715.73 468.627 716.821 467.567 717.958 466.696 719.133 466.011 720.306 465.326 721.458 464.859 722.57 464.614 724.89 464.102 726.373 464.49 727.017 465.814 727.66 467.138 727.2 469.419 725.627 472.763 724.138 475.932 722.205 478.814 719.885 481.4 717.566 483.984 715.238 485.699 712.874 486.333 711.55 486.688 710.602 486.553 710.017 485.941 709.666 485.576 709.389 484.92 709.182 483.992 708.74 485.139 708.518 485.723 708.077 486.916 707.008 487.185 706.478 487.319 705.417 487.578 710.006 474.556 712.385 470.302 716.402 459.972" fill="#000000" fill-opacity="1" stroke="none"/>
 <path id="path-99" d="M733.414 462.564 C734.575 462.284 735.151 462.144 736.297 461.861 735.815 462.944 735.564 463.488 735.058 464.587 736.184 463.466 737.116 462.624 737.86 462.059 739.131 461.093 740.354 460.461 741.538 460.155 742.878 459.808 743.798 459.897 744.266 460.431 744.531 460.735 744.654 462.001 744.654 462.001 744.75 462.039 746.798 459.844 747.839 459.123 748.88 458.4 749.906 457.896 750.927 457.605 753.109 456.984 754.206 457.471 754.132 459.115 754.095 459.999 753.667 461.301 752.826 463.017 750.288 468.187 748.807 470.831 746.406 475.465 745.328 475.846 744.782 476.036 743.678 476.416 746.174 471.455 747.708 468.676 750.31 463.278 750.934 461.984 751.075 461.173 750.759 460.847 750.442 460.519 749.894 460.473 749.112 460.693 748.039 460.996 746.914 461.68 745.731 462.752 744.551 463.821 743.482 465.363 742.498 467.381 740.286 471.925 739.078 474.233 736.975 478.646 735.843 479.012 735.272 479.196 734.123 479.557 736.498 474.481 737.871 471.868 740.322 466.762 740.958 465.436 741.279 464.501 741.282 463.976 741.286 463.193 740.684 462.943 739.503 463.247 738.428 463.523 737.226 464.245 735.886 465.424 734.547 466.601 733.275 468.441 732.047 471 730.025 475.212 728.961 477.363 727.005 481.732 725.847 482.076 725.266 482.247 724.102 482.584 727.801 474.16 729.998 470.196 733.414 462.564" fill="#000000" fill-opacity="1" stroke="none"/>
 <path id="path-100" d="M765.831 447.316 C764.105 453.296 762.205 456.97 758.703 463.478 757.675 465.39 757.095 466.846 756.953 467.847 756.739 469.366 757.563 469.703 759.347 469.014 761.484 468.188 763.416 466.775 765.455 464.554 766.558 463.35 767.744 461.811 768.958 459.888 773.118 453.298 775.386 449.363 777.406 443.314 778.665 442.855 779.301 442.622 780.583 442.145 778.584 447.687 776.522 451.234 772.54 457.378 770.359 460.742 768.321 463.244 766.626 465.042 763.531 468.32 760.917 470.26 757.887 471.531 754.856 472.802 753.309 472.434 753.732 469.884 753.963 468.486 754.949 466.17 756.625 462.903 759.685 456.94 761.26 453.724 762.831 448.283 764.027 447.903 764.628 447.71 765.831 447.316" fill="#000000" fill-opacity="1" stroke="none"/>
 <path id="path-101" d="M784.099 446.682 C780.668 452.24 778.378 455.329 774.255 460.283 773.46 461.238 772.91 461.938 772.579 462.421 771.967 463.31 772.043 463.504 772.78 463.114 773.838 462.555 775.358 461.389 777.709 459.243 778.972 458.093 780.578 456.537 782.45 454.487 786.213 450.369 788.135 448.039 791.336 443.7 792.42 443.24 792.961 443.008 794.057 442.534 786.92 451.582 781.663 457.187 774.032 462.903 773.643 463.194 773.432 463.341 772.988 463.639 774.031 462.797 774.574 462.331 775.676 461.338 774.792 462.079 774.007 462.707 773.306 463.255 771.911 464.346 770.951 465.05 770.202 465.493 769.036 466.182 768.763 466.054 769.559 464.782 769.983 464.099 770.784 463.022 772.014 461.457 775.935 456.465 778.139 453.349 781.383 447.753 782.466 447.33 783.011 447.117 784.099 446.682" fill="#000000" fill-opacity="1" stroke="none"/>
</svg>
